{"asset":{"version":"2.0","generator":"babylon.js glTF exporter for 3ds max 2019 v1.3.33"},"scene":0,"scenes":[{"nodes":[0,1],"extensions":{}}],"nodes":[{"mesh":0,"translation":[0.0,0.0,0.0],"rotation":[0.0,0.0,0.0,1.0],"scale":[1.0,1.0,1.0],"name":"Plane001"},{"translation":[0.0,0.0,0.0],"rotation":[0.0,0.0,0.0,1.0],"scale":[1.0,1.0,1.0],"name":"Default light"}],"meshes":[{"primitives":[{"attributes":{"POSITION":1,"NORMAL":2,"TEXCOORD_0":3,"TEXCOORD_1":4},"indices":0,"mode":4,"material":0},{"attributes":{"POSITION":6,"NORMAL":7,"TEXCOORD_0":8,"TEXCOORD_1":9},"indices":5,"mode":4,"material":1},{"attributes":{"POSITION":11,"NORMAL":12,"TEXCOORD_0":13,"TEXCOORD_1":14},"indices":10,"mode":4,"material":2}],"name":"Plane001"}],"accessors":[{"bufferView":0,"componentType":5123,"count":204,"type":"SCALAR","name":"accessorIndices"},{"bufferView":1,"componentType":5126,"count":204,"max":[0.8964634,17.5605,0.8525984],"min":[-0.896478653,2.329345,-0.8525984],"type":"VEC3","name":"accessorPositions"},{"bufferView":1,"byteOffset":2448,"componentType":5126,"count":204,"type":"VEC3","name":"accessorNormals"},{"bufferView":2,"componentType":5126,"count":204,"type":"VEC2","name":"accessorUVs"},{"bufferView":2,"byteOffset":1632,"componentType":5126,"count":204,"type":"VEC2","name":"accessorUV2s"},{"bufferView":0,"byteOffset":408,"componentType":5123,"count":54,"type":"SCALAR","name":"accessorIndices"},{"bufferView":1,"byteOffset":4896,"componentType":5126,"count":54,"max":[1.23805523,2.32934642,1.286585],"min":[-1.23805618,-2.98023224E-08,-1.28658509],"type":"VEC3","name":"accessorPositions"},{"bufferView":1,"byteOffset":5544,"componentType":5126,"count":54,"type":"VEC3","name":"accessorNormals"},{"bufferView":2,"byteOffset":3264,"componentType":5126,"count":54,"type":"VEC2","name":"accessorUVs"},{"bufferView":2,"byteOffset":3696,"componentType":5126,"count":54,"type":"VEC2","name":"accessorUV2s"},{"bufferView":0,"byteOffset":516,"componentType":5123,"count":6,"type":"SCALAR","name":"accessorIndices"},{"bufferView":1,"byteOffset":6192,"componentType":5126,"count":6,"max":[10.0,0.0,10.0],"min":[-10.0,0.0,-10.0],"type":"VEC3","name":"accessorPositions"},{"bufferView":1,"byteOffset":6264,"componentType":5126,"count":6,"type":"VEC3","name":"accessorNormals"},{"bufferView":2,"byteOffset":4128,"componentType":5126,"count":6,"type":"VEC2","name":"accessorUVs"},{"bufferView":2,"byteOffset":4176,"componentType":5126,"count":6,"type":"VEC2","name":"accessorUV2s"}],"bufferViews":[{"buffer":0,"byteLength":528,"name":"bufferViewScalar"},{"buffer":0,"byteOffset":528,"byteLength":6336,"byteStride":12,"name":"bufferViewFloatVec3"},{"buffer":0,"byteOffset":6864,"byteLength":4224,"byteStride":8,"name":"bufferViewFloatVec2"}],"buffers":[{"uri":"test_pipe.bin","byteLength":11088}],"materials":[{"pbrMetallicRoughness":{"baseColorFactor":[0.5,0.5,0.5,1.0],"baseColorTexture":{"index":1,"texCoord":0},"metallicFactor":0.65,"roughnessFactor":0.11},"normalTexture":{"index":0,"texCoord":1},"emissiveFactor":[0.0,0.0,0.0],"alphaMode":"OPAQUE","name":"Material #2264"},{"pbrMetallicRoughness":{"baseColorFactor":[0.5,0.5,0.5,1.0],"baseColorTexture":{"index":1,"texCoord":0},"metallicFactor":0.45,"roughnessFactor":0.3},"emissiveFactor":[0.0,0.0,0.0],"alphaMode":"OPAQUE","name":"Material #2263"},{"pbrMetallicRoughness":{"baseColorFactor":[0.5,0.5,0.5,1.0],"baseColorTexture":{"index":1,"texCoord":0},"metallicFactor":0.35,"roughnessFactor":0.19},"normalTexture":{"index":3,"texCoord":1},"emissiveFactor":[0.0,0.0,0.0],"alphaMode":"OPAQUE","name":"Material #2262"}],"textures":[{"sampler":0,"source":0,"name":"test_uv2_normal01.png"},{"sampler":0,"source":1,"name":"test_uv1_ao.jpg"},{"sampler":0,"source":1,"name":"test_uv1_ao.jpg"},{"sampler":0,"source":2,"name":"test_uv2_normal02.png"},{"sampler":0,"source":1,"name":"test_uv1_ao.jpg"}],"images":[{"uri":"test_uv2_normal01.png"},{"uri":"test_uv1_ao.jpg"},{"uri":"test_uv2_normal02.png"}],"samplers":[{"magFilter":9729,"minFilter":9987,"wrapS":10497,"wrapT":10497}]}