{"asset":{"version":"2.0","generator":"babylon.js glTF exporter for 3ds max 2019 v1.3.9"},"extensionsUsed":["KHR_texture_transform"],"extensionsRequired":["KHR_texture_transform"],"scene":0,"scenes":[{"nodes":[0,25],"extensions":{}}],"nodes":[{"children":[1,2,3,4,5,6,7,8,9,10,11,12,13,14,15,16,17,18,19,20,21,22,23,24],"translation":[1.38505745,2.52353144,-88.25214],"rotation":[0.0,0.0,0.0,1.0],"scale":[4.77568245,4.77568245,4.77568245],"name":"air_coolent_pump"},{"mesh":0,"translation":[-0.000553548336,-0.528969347,0.0],"rotation":[0.0,0.0,0.0,1.0],"scale":[1.0,1.0,1.0],"name":"Box344"},{"mesh":1,"translation":[-0.000553548336,-0.428969383,0.0],"rotation":[0.0,0.0,0.0,1.0],"scale":[1.0,1.0,1.0],"name":"Box345"},{"mesh":2,"translation":[-0.749783,0.0596435666,0.0],"rotation":[-0.5,-0.5,0.5,-0.5],"scale":[1.0,1.0,1.0],"name":"Cylinder533"},{"mesh":3,"translation":[-0.691939354,0.0596435666,0.0],"rotation":[-0.5,-0.5,0.5,-0.5],"scale":[1.0,1.0,1.0],"name":"Cylinder534"},{"mesh":4,"translation":[-0.631939352,0.0596435666,0.0],"rotation":[-0.5,-0.5,0.5,-0.5],"scale":[1.0,1.0,1.0],"name":"Cylinder535"},{"mesh":5,"translation":[0.2005535,0.0596435666,0.0],"rotation":[-0.5,-0.5,0.5,-0.5],"scale":[1.0,1.0,1.0],"name":"Cylinder536"},{"mesh":6,"translation":[0.5208665,0.0590498447,-0.0009384155],"rotation":[0.472521842,0.0,0.0,0.881319],"scale":[1.0,1.0,1.0],"name":"Box346"},{"mesh":7,"translation":[0.5208665,0.0590498447,-0.0009384155],"rotation":[0.413869053,0.0,0.0,0.910336435],"scale":[1.0,1.0,1.0],"name":"Box347"},{"mesh":8,"translation":[0.5208665,0.0590498447,-0.0009384155],"rotation":[0.35344407,0.0,0.0,0.9354557],"scale":[1.0,1.0,1.0],"name":"Box348"},{"mesh":9,"translation":[0.5208665,0.0590498447,-0.0009384155],"rotation":[0.291505545,0.0,0.0,0.956569135],"scale":[1.0,1.0,1.0],"name":"Box349"},{"mesh":10,"translation":[0.5208665,0.0590498447,-0.0009384155],"rotation":[0.228318781,0.0,0.0,0.9735865],"scale":[1.0,0.99999994,0.99999994],"name":"Box350"},{"mesh":11,"translation":[0.5208665,0.0590498447,-0.0009384155],"rotation":[0.164154321,0.0,0.0,0.9864347],"scale":[1.0,1.0,1.0],"name":"Box351"},{"mesh":12,"translation":[0.5208665,0.0590498447,-0.0009384155],"rotation":[0.09928691,0.0,0.0,0.9950589],"scale":[1.0,1.0,1.0],"name":"Box352"},{"mesh":13,"translation":[0.5208665,0.0590498447,-0.0009384155],"rotation":[0.0339943431,0.0,0.0,0.9994221],"scale":[1.0,1.0,1.0],"name":"Box353"},{"mesh":14,"translation":[0.5208665,0.0590498447,-0.0009384155],"rotation":[-0.0314438976,0.0,0.0,0.9995055],"scale":[1.0,1.0,1.0],"name":"Box354"},{"mesh":15,"translation":[0.5208665,0.0590498447,-0.0009384155],"rotation":[-0.09674722,0.0,0.0,0.995309055],"scale":[1.0,1.0,1.0],"name":"Box355"},{"mesh":16,"translation":[0.5208665,0.0590498447,-0.0009384155],"rotation":[-0.1616365,0.0,0.0,0.9868504],"scale":[1.0,1.0,1.0],"name":"Box356"},{"mesh":17,"translation":[0.5208665,0.0590498447,-0.0009384155],"rotation":[-0.22583364,0.0,0.0,0.9741659],"scale":[1.0,0.99999994,0.99999994],"name":"Box357"},{"mesh":18,"translation":[0.5208665,0.0590498447,-0.0009384155],"rotation":[-0.289063722,0.0,0.0,0.9573099],"scale":[1.0,0.99999994,0.99999994],"name":"Box359"},{"mesh":19,"translation":[0.5208665,0.0590498447,-0.0009384155],"rotation":[-0.351055741,0.0,0.0,0.9363546],"scale":[1.0,0.99999994,0.99999994],"name":"Box359 (1)"},{"mesh":20,"translation":[0.5208665,0.0590498447,-0.0009384155],"rotation":[-0.41154474,0.0,0.0,0.9113895],"scale":[1.0,1.0,1.0],"name":"Box360"},{"mesh":21,"translation":[0.5208665,0.0590498447,-0.0009384155],"rotation":[-0.470271379,0.0,0.0,0.882521868],"scale":[1.0,1.0,1.0],"name":"Box361"},{"mesh":22,"translation":[0.363575846,0.3989693,0.000785827637],"rotation":[0.0,0.0,0.0,1.0],"scale":[1.0,1.0,1.0],"name":"Box362"},{"mesh":23,"translation":[0.363575846,0.4489693,0.000785827637],"rotation":[0.0,0.0,0.0,1.0],"scale":[1.0,1.0,1.0],"name":"Box363"},{"translation":[0.0,0.0,0.0],"rotation":[0.0,0.0,0.0,1.0],"scale":[1.0,1.0,1.0],"name":"Default light"}],"meshes":[{"primitives":[{"attributes":{"POSITION":1,"NORMAL":2,"TEXCOORD_0":3},"indices":0,"mode":4,"material":0}],"name":"Box344"},{"primitives":[{"attributes":{"POSITION":5,"NORMAL":6,"TEXCOORD_0":7},"indices":4,"mode":4,"material":0}],"name":"Box345"},{"primitives":[{"attributes":{"POSITION":9,"NORMAL":10,"TEXCOORD_0":11},"indices":8,"mode":4,"material":1}],"name":"Cylinder533"},{"primitives":[{"attributes":{"POSITION":13,"NORMAL":14,"TEXCOORD_0":15},"indices":12,"mode":4,"material":2}],"name":"Cylinder534"},{"primitives":[{"attributes":{"POSITION":17,"NORMAL":18,"TEXCOORD_0":19},"indices":16,"mode":4,"material":2}],"name":"Cylinder535"},{"primitives":[{"attributes":{"POSITION":21,"NORMAL":22,"TEXCOORD_0":23},"indices":20,"mode":4,"material":2}],"name":"Cylinder536"},{"primitives":[{"attributes":{"POSITION":25,"NORMAL":26,"TEXCOORD_0":27},"indices":24,"mode":4,"material":2}],"name":"Box346"},{"primitives":[{"attributes":{"POSITION":29,"NORMAL":30,"TEXCOORD_0":31},"indices":28,"mode":4,"material":2}],"name":"Box347"},{"primitives":[{"attributes":{"POSITION":33,"NORMAL":34,"TEXCOORD_0":35},"indices":32,"mode":4,"material":2}],"name":"Box348"},{"primitives":[{"attributes":{"POSITION":37,"NORMAL":38,"TEXCOORD_0":39},"indices":36,"mode":4,"material":2}],"name":"Box349"},{"primitives":[{"attributes":{"POSITION":41,"NORMAL":42,"TEXCOORD_0":43},"indices":40,"mode":4,"material":2}],"name":"Box350"},{"primitives":[{"attributes":{"POSITION":45,"NORMAL":46,"TEXCOORD_0":47},"indices":44,"mode":4,"material":2}],"name":"Box351"},{"primitives":[{"attributes":{"POSITION":49,"NORMAL":50,"TEXCOORD_0":51},"indices":48,"mode":4,"material":2}],"name":"Box352"},{"primitives":[{"attributes":{"POSITION":53,"NORMAL":54,"TEXCOORD_0":55},"indices":52,"mode":4,"material":2}],"name":"Box353"},{"primitives":[{"attributes":{"POSITION":57,"NORMAL":58,"TEXCOORD_0":59},"indices":56,"mode":4,"material":2}],"name":"Box354"},{"primitives":[{"attributes":{"POSITION":61,"NORMAL":62,"TEXCOORD_0":63},"indices":60,"mode":4,"material":2}],"name":"Box355"},{"primitives":[{"attributes":{"POSITION":65,"NORMAL":66,"TEXCOORD_0":67},"indices":64,"mode":4,"material":2}],"name":"Box356"},{"primitives":[{"attributes":{"POSITION":69,"NORMAL":70,"TEXCOORD_0":71},"indices":68,"mode":4,"material":2}],"name":"Box357"},{"primitives":[{"attributes":{"POSITION":73,"NORMAL":74,"TEXCOORD_0":75},"indices":72,"mode":4,"material":2}],"name":"Box359"},{"primitives":[{"attributes":{"POSITION":77,"NORMAL":78,"TEXCOORD_0":79},"indices":76,"mode":4,"material":2}],"name":"Box359"},{"primitives":[{"attributes":{"POSITION":81,"NORMAL":82,"TEXCOORD_0":83},"indices":80,"mode":4,"material":2}],"name":"Box360"},{"primitives":[{"attributes":{"POSITION":85,"NORMAL":86,"TEXCOORD_0":87},"indices":84,"mode":4,"material":2}],"name":"Box361"},{"primitives":[{"attributes":{"POSITION":89,"NORMAL":90,"TEXCOORD_0":91},"indices":88,"mode":4,"material":3}],"name":"Box362"},{"primitives":[{"attributes":{"POSITION":93,"NORMAL":94,"TEXCOORD_0":95},"indices":92,"mode":4,"material":2}],"name":"Box363"}],"accessors":[{"bufferView":0,"componentType":5123,"count":36,"type":"SCALAR","name":"accessorIndices"},{"bufferView":1,"componentType":5126,"count":36,"max":[1.0,0.1,0.5999985],"min":[-1.0,0.0,-0.6000004],"type":"VEC3","name":"accessorPositions"},{"bufferView":1,"byteOffset":432,"componentType":5126,"count":36,"type":"VEC3","name":"accessorNormals"},{"bufferView":2,"componentType":5126,"count":36,"type":"VEC2","name":"accessorUVs"},{"bufferView":0,"byteOffset":72,"componentType":5123,"count":36,"type":"SCALAR","name":"accessorIndices"},{"bufferView":1,"byteOffset":864,"componentType":5126,"count":36,"max":[0.9000001,0.200000018,0.4999981],"min":[-0.9,0.0,-0.5],"type":"VEC3","name":"accessorPositions"},{"bufferView":1,"byteOffset":1296,"componentType":5126,"count":36,"type":"VEC3","name":"accessorNormals"},{"bufferView":2,"byteOffset":288,"componentType":5126,"count":36,"type":"VEC2","name":"accessorUVs"},{"bufferView":0,"byteOffset":144,"componentType":5123,"count":216,"type":"SCALAR","name":"accessorIndices"},{"bufferView":1,"byteOffset":1728,"componentType":5126,"count":216,"max":[0.100000381,1.5,0.09848079],"min":[-0.0999984741,0.0,-0.09848076],"type":"VEC3","name":"accessorPositions"},{"bufferView":1,"byteOffset":4320,"componentType":5126,"count":216,"type":"VEC3","name":"accessorNormals"},{"bufferView":2,"byteOffset":576,"componentType":5126,"count":216,"type":"VEC2","name":"accessorUVs"},{"bufferView":0,"byteOffset":576,"componentType":5123,"count":216,"type":"SCALAR","name":"accessorIndices"},{"bufferView":1,"byteOffset":6912,"componentType":5126,"count":216,"max":[0.299999237,0.100000024,0.2954424],"min":[-0.299999237,-2.98023224E-08,-0.2954424],"type":"VEC3","name":"accessorPositions"},{"bufferView":1,"byteOffset":9504,"componentType":5126,"count":216,"type":"VEC3","name":"accessorNormals"},{"bufferView":2,"byteOffset":2304,"componentType":5126,"count":216,"type":"VEC2","name":"accessorUVs"},{"bufferView":0,"byteOffset":1008,"componentType":5123,"count":216,"type":"SCALAR","name":"accessorIndices"},{"bufferView":1,"byteOffset":12096,"componentType":5126,"count":216,"max":[0.200000763,0.2,0.196961582],"min":[-0.199998856,0.0,-0.196961582],"type":"VEC3","name":"accessorPositions"},{"bufferView":1,"byteOffset":14688,"componentType":5126,"count":216,"type":"VEC3","name":"accessorNormals"},{"bufferView":2,"byteOffset":4032,"componentType":5126,"count":216,"type":"VEC2","name":"accessorUVs"},{"bufferView":0,"byteOffset":1440,"componentType":5123,"count":216,"type":"SCALAR","name":"accessorIndices"},{"bufferView":1,"byteOffset":17280,"componentType":5126,"count":216,"max":[0.350000381,0.8000001,0.344682723],"min":[-0.349998474,0.0,-0.3446828],"type":"VEC3","name":"accessorPositions"},{"bufferView":1,"byteOffset":19872,"componentType":5126,"count":216,"type":"VEC3","name":"accessorNormals"},{"bufferView":2,"byteOffset":5760,"componentType":5126,"count":216,"type":"VEC2","name":"accessorUVs"},{"bufferView":0,"byteOffset":1872,"componentType":5123,"count":36,"type":"SCALAR","name":"accessorIndices"},{"bufferView":1,"byteOffset":22464,"componentType":5126,"count":36,"max":[0.199999988,0.00500011444,0.354999542],"min":[-0.200000048,0.0,-0.354999542],"type":"VEC3","name":"accessorPositions"},{"bufferView":1,"byteOffset":22896,"componentType":5126,"count":36,"type":"VEC3","name":"accessorNormals"},{"bufferView":2,"byteOffset":7488,"componentType":5126,"count":36,"type":"VEC2","name":"accessorUVs"},{"bufferView":0,"byteOffset":1944,"componentType":5123,"count":36,"type":"SCALAR","name":"accessorIndices"},{"bufferView":1,"byteOffset":23328,"componentType":5126,"count":36,"max":[0.199999988,0.005001068,0.3550005],"min":[-0.200000048,0.0,-0.3550005],"type":"VEC3","name":"accessorPositions"},{"bufferView":1,"byteOffset":23760,"componentType":5126,"count":36,"type":"VEC3","name":"accessorNormals"},{"bufferView":2,"byteOffset":7776,"componentType":5126,"count":36,"type":"VEC2","name":"accessorUVs"},{"bufferView":0,"byteOffset":2016,"componentType":5123,"count":36,"type":"SCALAR","name":"accessorIndices"},{"bufferView":1,"byteOffset":24192,"componentType":5126,"count":36,"max":[0.199999988,0.00499916077,0.354999542],"min":[-0.200000048,-9.536743E-07,-0.35500145],"type":"VEC3","name":"accessorPositions"},{"bufferView":1,"byteOffset":24624,"componentType":5126,"count":36,"type":"VEC3","name":"accessorNormals"},{"bufferView":2,"byteOffset":8064,"componentType":5126,"count":36,"type":"VEC2","name":"accessorUVs"},{"bufferView":0,"byteOffset":2088,"componentType":5123,"count":36,"type":"SCALAR","name":"accessorIndices"},{"bufferView":1,"byteOffset":25056,"componentType":5126,"count":36,"max":[0.199999988,0.00500011444,0.354999542],"min":[-0.200000048,-9.536743E-07,-0.3550005],"type":"VEC3","name":"accessorPositions"},{"bufferView":1,"byteOffset":25488,"componentType":5126,"count":36,"type":"VEC3","name":"accessorNormals"},{"bufferView":2,"byteOffset":8352,"componentType":5126,"count":36,"type":"VEC2","name":"accessorUVs"},{"bufferView":0,"byteOffset":2160,"componentType":5123,"count":36,"type":"SCALAR","name":"accessorIndices"},{"bufferView":1,"byteOffset":25920,"componentType":5126,"count":36,"max":[0.199999928,0.00500059128,0.354997635],"min":[-0.200000048,-4.76837158E-07,-0.35500145],"type":"VEC3","name":"accessorPositions"},{"bufferView":1,"byteOffset":26352,"componentType":5126,"count":36,"type":"VEC3","name":"accessorNormals"},{"bufferView":2,"byteOffset":8640,"componentType":5126,"count":36,"type":"VEC2","name":"accessorUVs"},{"bufferView":0,"byteOffset":2232,"componentType":5123,"count":36,"type":"SCALAR","name":"accessorIndices"},{"bufferView":1,"byteOffset":26784,"componentType":5126,"count":36,"max":[0.199999988,0.0049996376,0.354999542],"min":[-0.200000048,-4.76837158E-07,-0.35500145],"type":"VEC3","name":"accessorPositions"},{"bufferView":1,"byteOffset":27216,"componentType":5126,"count":36,"type":"VEC3","name":"accessorNormals"},{"bufferView":2,"byteOffset":8928,"componentType":5126,"count":36,"type":"VEC2","name":"accessorUVs"},{"bufferView":0,"byteOffset":2304,"componentType":5123,"count":36,"type":"SCALAR","name":"accessorIndices"},{"bufferView":1,"byteOffset":27648,"componentType":5126,"count":36,"max":[0.199999988,0.004999876,0.354999542],"min":[-0.200000048,0.0,-0.35500145],"type":"VEC3","name":"accessorPositions"},{"bufferView":1,"byteOffset":28080,"componentType":5126,"count":36,"type":"VEC3","name":"accessorNormals"},{"bufferView":2,"byteOffset":9216,"componentType":5126,"count":36,"type":"VEC2","name":"accessorUVs"},{"bufferView":0,"byteOffset":2376,"componentType":5123,"count":36,"type":"SCALAR","name":"accessorIndices"},{"bufferView":1,"byteOffset":28512,"componentType":5126,"count":36,"max":[0.199999928,0.004999995,0.354999542],"min":[-0.200000048,-5.96046448E-08,-0.355003357],"type":"VEC3","name":"accessorPositions"},{"bufferView":1,"byteOffset":28944,"componentType":5126,"count":36,"type":"VEC3","name":"accessorNormals"},{"bufferView":2,"byteOffset":9504,"componentType":5126,"count":36,"type":"VEC2","name":"accessorUVs"},{"bufferView":0,"byteOffset":2448,"componentType":5123,"count":36,"type":"SCALAR","name":"accessorIndices"},{"bufferView":1,"byteOffset":29376,"componentType":5126,"count":36,"max":[0.199999988,0.004999995,0.35500145],"min":[-0.200000048,-1.1920929E-07,-0.35500145],"type":"VEC3","name":"accessorPositions"},{"bufferView":1,"byteOffset":29808,"componentType":5126,"count":36,"type":"VEC3","name":"accessorNormals"},{"bufferView":2,"byteOffset":9792,"componentType":5126,"count":36,"type":"VEC2","name":"accessorUVs"},{"bufferView":0,"byteOffset":2520,"componentType":5123,"count":36,"type":"SCALAR","name":"accessorIndices"},{"bufferView":1,"byteOffset":30240,"componentType":5126,"count":36,"max":[0.199999988,0.00500011444,0.354999542],"min":[-0.200000048,0.0,-0.35500145],"type":"VEC3","name":"accessorPositions"},{"bufferView":1,"byteOffset":30672,"componentType":5126,"count":36,"type":"VEC3","name":"accessorNormals"},{"bufferView":2,"byteOffset":10080,"componentType":5126,"count":36,"type":"VEC2","name":"accessorUVs"},{"bufferView":0,"byteOffset":2592,"componentType":5123,"count":36,"type":"SCALAR","name":"accessorIndices"},{"bufferView":1,"byteOffset":31104,"componentType":5126,"count":36,"max":[0.199999988,0.00500059128,0.354999542],"min":[-0.200000048,0.0,-0.35500145],"type":"VEC3","name":"accessorPositions"},{"bufferView":1,"byteOffset":31536,"componentType":5126,"count":36,"type":"VEC3","name":"accessorNormals"},{"bufferView":2,"byteOffset":10368,"componentType":5126,"count":36,"type":"VEC2","name":"accessorUVs"},{"bufferView":0,"byteOffset":2664,"componentType":5123,"count":36,"type":"SCALAR","name":"accessorIndices"},{"bufferView":1,"byteOffset":31968,"componentType":5126,"count":36,"max":[0.199999928,0.005001068,0.3550024],"min":[-0.200000048,0.0,-0.354999542],"type":"VEC3","name":"accessorPositions"},{"bufferView":1,"byteOffset":32400,"componentType":5126,"count":36,"type":"VEC3","name":"accessorNormals"},{"bufferView":2,"byteOffset":10656,"componentType":5126,"count":36,"type":"VEC2","name":"accessorUVs"},{"bufferView":0,"byteOffset":2736,"componentType":5123,"count":36,"type":"SCALAR","name":"accessorIndices"},{"bufferView":1,"byteOffset":32832,"componentType":5126,"count":36,"max":[0.199999988,0.00500011444,0.35500145],"min":[-0.200000048,-9.536743E-07,-0.3550005],"type":"VEC3","name":"accessorPositions"},{"bufferView":1,"byteOffset":33264,"componentType":5126,"count":36,"type":"VEC3","name":"accessorNormals"},{"bufferView":2,"byteOffset":10944,"componentType":5126,"count":36,"type":"VEC2","name":"accessorUVs"},{"bufferView":0,"byteOffset":2808,"componentType":5123,"count":36,"type":"SCALAR","name":"accessorIndices"},{"bufferView":1,"byteOffset":33696,"componentType":5126,"count":36,"max":[0.199999928,0.00499916077,0.35500145],"min":[-0.200000048,-9.536743E-07,-0.3550005],"type":"VEC3","name":"accessorPositions"},{"bufferView":1,"byteOffset":34128,"componentType":5126,"count":36,"type":"VEC3","name":"accessorNormals"},{"bufferView":2,"byteOffset":11232,"componentType":5126,"count":36,"type":"VEC2","name":"accessorUVs"},{"bufferView":0,"byteOffset":2880,"componentType":5123,"count":36,"type":"SCALAR","name":"accessorIndices"},{"bufferView":1,"byteOffset":34560,"componentType":5126,"count":36,"max":[0.199999988,0.00500011444,0.3550005],"min":[-0.200000048,-9.536743E-07,-0.354999542],"type":"VEC3","name":"accessorPositions"},{"bufferView":1,"byteOffset":34992,"componentType":5126,"count":36,"type":"VEC3","name":"accessorNormals"},{"bufferView":2,"byteOffset":11520,"componentType":5126,"count":36,"type":"VEC2","name":"accessorUVs"},{"bufferView":0,"byteOffset":2952,"componentType":5123,"count":36,"type":"SCALAR","name":"accessorIndices"},{"bufferView":1,"byteOffset":35424,"componentType":5126,"count":36,"max":[0.199999988,0.005001068,0.3550005],"min":[-0.200000048,0.0,-0.3550005],"type":"VEC3","name":"accessorPositions"},{"bufferView":1,"byteOffset":35856,"componentType":5126,"count":36,"type":"VEC3","name":"accessorNormals"},{"bufferView":2,"byteOffset":11808,"componentType":5126,"count":36,"type":"VEC2","name":"accessorUVs"},{"bufferView":0,"byteOffset":3024,"componentType":5123,"count":36,"type":"SCALAR","name":"accessorIndices"},{"bufferView":1,"byteOffset":36288,"componentType":5126,"count":36,"max":[0.07500005,0.0500000119,0.07500076],"min":[-0.07499999,0.0,-0.0749988556],"type":"VEC3","name":"accessorPositions"},{"bufferView":1,"byteOffset":36720,"componentType":5126,"count":36,"type":"VEC3","name":"accessorNormals"},{"bufferView":2,"byteOffset":12096,"componentType":5126,"count":36,"type":"VEC2","name":"accessorUVs"},{"bufferView":0,"byteOffset":3096,"componentType":5123,"count":36,"type":"SCALAR","name":"accessorIndices"},{"bufferView":1,"byteOffset":37152,"componentType":5126,"count":36,"max":[0.100000024,0.08000004,0.09000015],"min":[-0.0999999642,0.0,-0.0899982452],"type":"VEC3","name":"accessorPositions"},{"bufferView":1,"byteOffset":37584,"componentType":5126,"count":36,"type":"VEC3","name":"accessorNormals"},{"bufferView":2,"byteOffset":12384,"componentType":5126,"count":36,"type":"VEC2","name":"accessorUVs"}],"bufferViews":[{"buffer":0,"byteLength":3168,"name":"bufferViewScalar"},{"buffer":0,"byteOffset":3168,"byteLength":38016,"byteStride":12,"name":"bufferViewFloatVec3"},{"buffer":0,"byteOffset":41184,"byteLength":12672,"byteStride":8,"name":"bufferViewFloatVec2"}],"buffers":[{"uri":"ac_pump.bin","byteLength":53856}],"materials":[{"pbrMetallicRoughness":{"baseColorFactor":[1.0,1.0,1.0,1.0],"baseColorTexture":{"index":0,"texCoord":0,"extensions":{"KHR_texture_transform":{"offset":[-0.5,0.75],"scale":[2.0,2.5],"texCoord":0}}},"metallicFactor":0.0,"roughnessFactor":0.9},"emissiveFactor":[0.0,0.0,0.0],"alphaMode":"OPAQUE","name":"12 - Car Paint"},{"pbrMetallicRoughness":{"baseColorFactor":[0.9999998,0.9999998,0.9999998,1.0],"baseColorTexture":{"index":2,"texCoord":0},"metallicFactor":0.802083135,"roughnessFactor":0.6},"normalTexture":{"index":1,"texCoord":0},"emissiveFactor":[0.0,0.0,0.0],"alphaMode":"BLEND","name":"Material #6"},{"pbrMetallicRoughness":{"baseColorFactor":[1.0,1.0,1.0,1.0],"baseColorTexture":{"index":4,"texCoord":0},"metallicFactor":0.755208552,"roughnessFactor":0.65},"normalTexture":{"index":3,"texCoord":0},"emissiveFactor":[0.0,0.0,0.0],"alphaMode":"OPAQUE","name":"01 - Default"},{"pbrMetallicRoughness":{"baseColorFactor":[1.0,1.0,1.0,1.0],"baseColorTexture":{"index":6,"texCoord":0},"metallicFactor":0.3333332,"roughnessFactor":0.8},"normalTexture":{"index":5,"texCoord":0},"emissiveFactor":[0.0,0.0,0.0],"alphaMode":"BLEND","name":"02 - Default"}],"textures":[{"sampler":0,"source":0,"name":"12 - Car Paint_baseColor.jpg"},{"sampler":1,"source":1,"name":"blue5.png"},{"sampler":2,"source":2,"name":"Material #6_baseColor.png"},{"sampler":3,"source":3,"name":"green1.png"},{"sampler":4,"source":4,"name":"01 - Default_baseColor.jpg"},{"sampler":5,"source":5,"name":"green2.png"},{"sampler":6,"source":6,"name":"02 - Default_baseColor.png"}],"images":[{"uri":"12 - Car Paint_baseColor.jpg"},{"uri":"blue5.png"},{"uri":"Material #6_baseColor.png"},{"uri":"green1.png"},{"uri":"01 - Default_baseColor.jpg"},{"uri":"green2.png"},{"uri":"02 - Default_baseColor.png"}],"samplers":[{"magFilter":9729,"minFilter":9987,"wrapS":10497,"wrapT":10497},{"magFilter":9729,"minFilter":9987,"wrapS":10497,"wrapT":10497},{"magFilter":9729,"minFilter":9987,"wrapS":10497,"wrapT":10497},{"magFilter":9729,"minFilter":9987,"wrapS":10497,"wrapT":10497},{"magFilter":9729,"minFilter":9987,"wrapS":10497,"wrapT":10497},{"magFilter":9729,"minFilter":9987,"wrapS":10497,"wrapT":10497},{"magFilter":9729,"minFilter":9987,"wrapS":10497,"wrapT":10497}]}