{"asset":{"version":"2.0","generator":"babylon.js glTF exporter for 3ds max 2019 v1.3.9"},"scene":0,"scenes":[{"nodes":[0,18,36],"extensions":{}}],"nodes":[{"children":[1,2,3,4,5,6,7,8,9,10,11,12,13,14,15,16,17],"translation":[2.84703064,5.89460135,9.856373],"rotation":[0.0,-1.0,0.0,7.54979E-08],"scale":[2.809225,2.809225,2.809225],"name":"cooler_set"},{"mesh":0,"translation":[-0.9719372,-0.899999857,-4.175],"rotation":[0.7071068,-5.989428E-22,0.0,0.7071067],"scale":[1.0,1.0,1.0],"name":"OilTank001"},{"mesh":1,"translation":[0.789874852,-1.0999999,-4.174999],"rotation":[0.7071068,-5.989428E-22,0.0,0.7071067],"scale":[1.0,1.0,1.0],"name":"OilTank002"},{"mesh":2,"translation":[1.1920929E-07,0.100000143,-2.52499938],"rotation":[0.0,0.0,0.0,1.0],"scale":[1.0,1.0,1.0],"name":"Box001"},{"mesh":3,"translation":[1.1920929E-07,-2.10000014,-3.47499967],"rotation":[0.0,0.0,0.0,1.0],"scale":[1.0,1.0,1.0],"name":"Box002"},{"mesh":4,"translation":[1.1920929E-07,-2.10000014,2.625],"rotation":[0.0,0.0,0.0,1.0],"scale":[1.0,1.0,1.0],"name":"Box003"},{"mesh":5,"translation":[0.106153548,0.600000143,0.325000763],"rotation":[0.0,0.0,0.0,1.0],"scale":[1.0,1.0,1.0],"name":"ChamferBox001"},{"mesh":6,"translation":[0.1000002,1.30000019,-1.57499957],"rotation":[0.7071068,-5.989428E-22,0.0,0.7071067],"scale":[1.0,1.0,1.0],"name":"Cylinder001"},{"mesh":7,"translation":[-1.1920929E-07,-0.6799997,-2.52499938],"rotation":[0.0,0.0,0.0,1.0],"scale":[1.0,1.0,1.0],"name":"Box005"},{"mesh":8,"translation":[1.12806249,-0.399999976,0.325001],"rotation":[0.0,0.0,0.0,1.0],"scale":[1.0,1.0,1.0],"name":"Box006"},{"mesh":9,"translation":[-0.9719373,-0.549999833,3.02499962],"rotation":[0.7071068,-5.989428E-22,0.0,0.7071067],"scale":[1.0,1.0,1.0],"name":"Cylinder002"},{"mesh":10,"translation":[-0.9719373,-1.25,3.02499962],"rotation":[0.7071068,-5.989428E-22,0.0,0.7071067],"scale":[1.0,1.0,1.0],"name":"Cylinder003"},{"mesh":11,"translation":[-0.971937537,-0.549999833,3.97500038],"rotation":[0.7071068,-5.989428E-22,0.0,0.7071067],"scale":[1.0,1.0,1.0],"name":"Cylinder004"},{"mesh":12,"translation":[-0.971937537,-1.25,3.97500038],"rotation":[0.7071068,-5.989428E-22,0.0,0.7071067],"scale":[1.0,1.0,1.0],"name":"Cylinder005"},{"mesh":13,"translation":[0.7900624,-0.75,3.02499986],"rotation":[0.7071068,-5.989428E-22,0.0,0.7071067],"scale":[1.0,1.0,1.0],"name":"Cylinder006"},{"mesh":14,"translation":[0.832683563,-1.44999981,3.02499986],"rotation":[0.7071068,-5.989428E-22,0.0,0.7071067],"scale":[1.0,1.0,1.0],"name":"Cylinder007"},{"mesh":15,"translation":[0.832683563,-0.75,3.97500062],"rotation":[0.7071068,-5.989428E-22,0.0,0.7071067],"scale":[1.0,1.0,1.0],"name":"Cylinder008"},{"mesh":16,"translation":[0.832683563,-1.44999981,3.97500062],"rotation":[0.7071068,-5.989428E-22,0.0,0.7071067],"scale":[1.0,1.0,1.0],"name":"Cylinder009"},{"children":[19,20,21,22,23,24,25,26,27,28,29,30,31,32,33,34,35],"translation":[-58.0522957,5.89460135,9.856373],"rotation":[0.0,-1.0,0.0,7.54979E-08],"scale":[2.809225,2.809225,2.809225],"name":"cooler_set001"},{"mesh":0,"translation":[-0.9719353,-0.899999857,-4.175],"rotation":[0.7071068,-5.989428E-22,0.0,0.7071067],"scale":[1.0,1.0,1.0],"name":"OilTank005"},{"mesh":1,"translation":[0.789875031,-1.0999999,-4.174999],"rotation":[0.7071068,-5.989428E-22,0.0,0.7071067],"scale":[1.0,1.0,1.0],"name":"OilTank006"},{"mesh":2,"translation":[0.0,0.100000143,-2.52499938],"rotation":[0.0,0.0,0.0,1.0],"scale":[1.0,1.0,1.0],"name":"Box456"},{"mesh":3,"translation":[1.90734863E-06,-2.10000014,-3.47499967],"rotation":[0.0,0.0,0.0,1.0],"scale":[1.0,1.0,1.0],"name":"Box457"},{"mesh":4,"translation":[0.0,-2.10000014,2.625],"rotation":[0.0,0.0,0.0,1.0],"scale":[1.0,1.0,1.0],"name":"Box458"},{"mesh":5,"translation":[0.106153488,0.600000143,0.325000763],"rotation":[0.0,0.0,0.0,1.0],"scale":[1.0,1.0,1.0],"name":"ChamferBox002"},{"mesh":6,"translation":[0.100000381,1.30000019,-1.57499957],"rotation":[0.7071068,-5.989428E-22,0.0,0.7071067],"scale":[1.0,1.0,1.0],"name":"Cylinder553"},{"mesh":7,"translation":[0.0,-0.6799997,-2.52499938],"rotation":[0.0,0.0,0.0,1.0],"scale":[1.0,1.0,1.0],"name":"Box459"},{"mesh":8,"translation":[1.12806129,-0.399999976,0.325001],"rotation":[0.0,0.0,0.0,1.0],"scale":[1.0,1.0,1.0],"name":"Box460"},{"mesh":9,"translation":[-0.9719372,-0.549999833,3.02499938],"rotation":[0.7071068,-5.989428E-22,0.0,0.7071067],"scale":[1.0,1.0,1.0],"name":"Cylinder554"},{"mesh":10,"translation":[-0.9719372,-1.25,3.02499938],"rotation":[0.7071068,-5.989428E-22,0.0,0.7071067],"scale":[1.0,1.0,1.0],"name":"Cylinder555"},{"mesh":11,"translation":[-0.9719372,-0.549999833,3.97500038],"rotation":[0.7071068,-5.989428E-22,0.0,0.7071067],"scale":[1.0,1.0,1.0],"name":"Cylinder556"},{"mesh":12,"translation":[-0.9719372,-1.25,3.97500038],"rotation":[0.7071068,-5.989428E-22,0.0,0.7071067],"scale":[1.0,1.0,1.0],"name":"Cylinder557"},{"mesh":13,"translation":[0.790061951,-0.75,3.02499962],"rotation":[0.7071068,-5.989428E-22,0.0,0.7071067],"scale":[1.0,1.0,1.0],"name":"Cylinder558"},{"mesh":14,"translation":[0.832683563,-1.44999981,3.02499962],"rotation":[0.7071068,-5.989428E-22,0.0,0.7071067],"scale":[1.0,1.0,1.0],"name":"Cylinder559"},{"mesh":15,"translation":[0.8326855,-0.75,3.97500062],"rotation":[0.7071068,-5.989428E-22,0.0,0.7071067],"scale":[1.0,1.0,1.0],"name":"Cylinder560"},{"mesh":16,"translation":[0.8326855,-1.44999981,3.97500062],"rotation":[0.7071068,-5.989428E-22,0.0,0.7071067],"scale":[1.0,1.0,1.0],"name":"Cylinder561"},{"translation":[0.0,0.0,0.0],"rotation":[0.0,0.0,0.0,1.0],"scale":[1.0,1.0,1.0],"name":"Default light"}],"meshes":[{"primitives":[{"attributes":{"POSITION":1,"NORMAL":2,"TEXCOORD_0":3},"indices":0,"mode":4,"material":0}],"name":"OilTank001"},{"primitives":[{"attributes":{"POSITION":5,"NORMAL":6,"TEXCOORD_0":7},"indices":4,"mode":4,"material":0}],"name":"OilTank002"},{"primitives":[{"attributes":{"POSITION":9,"NORMAL":10,"TEXCOORD_0":11},"indices":8,"mode":4,"material":1}],"name":"Box001"},{"primitives":[{"attributes":{"POSITION":13,"NORMAL":14,"TEXCOORD_0":15},"indices":12,"mode":4,"material":1}],"name":"Box002"},{"primitives":[{"attributes":{"POSITION":17,"NORMAL":18,"TEXCOORD_0":19},"indices":16,"mode":4,"material":1}],"name":"Box003"},{"primitives":[{"attributes":{"POSITION":21,"NORMAL":22,"TEXCOORD_0":23},"indices":20,"mode":4,"material":1}],"name":"ChamferBox001"},{"primitives":[{"attributes":{"POSITION":25,"NORMAL":26,"TEXCOORD_0":27},"indices":24,"mode":4,"material":0}],"name":"Cylinder001"},{"primitives":[{"attributes":{"POSITION":29,"NORMAL":30,"TEXCOORD_0":31},"indices":28,"mode":4,"material":1}],"name":"Box005"},{"primitives":[{"attributes":{"POSITION":33,"NORMAL":34,"TEXCOORD_0":35},"indices":32,"mode":4,"material":2}],"name":"Box006"},{"primitives":[{"attributes":{"POSITION":37,"NORMAL":38,"TEXCOORD_0":39},"indices":36,"mode":4,"material":0}],"name":"Cylinder002"},{"primitives":[{"attributes":{"POSITION":41,"NORMAL":42,"TEXCOORD_0":43},"indices":40,"mode":4,"material":0}],"name":"Cylinder003"},{"primitives":[{"attributes":{"POSITION":45,"NORMAL":46,"TEXCOORD_0":47},"indices":44,"mode":4,"material":1}],"name":"Cylinder004"},{"primitives":[{"attributes":{"POSITION":49,"NORMAL":50,"TEXCOORD_0":51},"indices":48,"mode":4,"material":1}],"name":"Cylinder005"},{"primitives":[{"attributes":{"POSITION":53,"NORMAL":54,"TEXCOORD_0":55},"indices":52,"mode":4,"material":0}],"name":"Cylinder006"},{"primitives":[{"attributes":{"POSITION":57,"NORMAL":58,"TEXCOORD_0":59},"indices":56,"mode":4,"material":0}],"name":"Cylinder007"},{"primitives":[{"attributes":{"POSITION":61,"NORMAL":62,"TEXCOORD_0":63},"indices":60,"mode":4,"material":1}],"name":"Cylinder008"},{"primitives":[{"attributes":{"POSITION":65,"NORMAL":66,"TEXCOORD_0":67},"indices":64,"mode":4,"material":1}],"name":"Cylinder009"}],"accessors":[{"bufferView":0,"componentType":5123,"count":2304,"type":"SCALAR","name":"accessorIndices"},{"bufferView":1,"componentType":5126,"count":2304,"max":[0.799999952,7.49999952,0.799999952],"min":[-0.8000003,0.0,-0.799999952],"type":"VEC3","name":"accessorPositions"},{"bufferView":1,"byteOffset":27648,"componentType":5126,"count":2304,"type":"VEC3","name":"accessorNormals"},{"bufferView":2,"componentType":5126,"count":2304,"type":"VEC2","name":"accessorUVs"},{"bufferView":0,"byteOffset":4608,"componentType":5123,"count":2304,"type":"SCALAR","name":"accessorIndices"},{"bufferView":1,"byteOffset":55296,"componentType":5126,"count":2304,"max":[1.0,7.49999952,1.0],"min":[-1.0,0.0,-0.99999994],"type":"VEC3","name":"accessorPositions"},{"bufferView":1,"byteOffset":82944,"componentType":5126,"count":2304,"type":"VEC3","name":"accessorNormals"},{"bufferView":2,"byteOffset":18432,"componentType":5126,"count":2304,"type":"VEC2","name":"accessorUVs"},{"bufferView":0,"byteOffset":9216,"componentType":5123,"count":36,"type":"SCALAR","name":"accessorIndices"},{"bufferView":1,"byteOffset":110592,"componentType":5126,"count":36,"max":[1.5999999,1.99999952,1.0],"min":[-1.60000014,0.0,-1.00000048],"type":"VEC3","name":"accessorPositions"},{"bufferView":1,"byteOffset":111024,"componentType":5126,"count":36,"type":"VEC3","name":"accessorNormals"},{"bufferView":2,"byteOffset":36864,"componentType":5126,"count":36,"type":"VEC2","name":"accessorUVs"},{"bufferView":0,"byteOffset":9288,"componentType":5123,"count":36,"type":"SCALAR","name":"accessorIndices"},{"bufferView":1,"byteOffset":111456,"componentType":5126,"count":36,"max":[1.8,2.05,0.05000019],"min":[-1.8,0.0,-0.0500006676],"type":"VEC3","name":"accessorPositions"},{"bufferView":1,"byteOffset":111888,"componentType":5126,"count":36,"type":"VEC3","name":"accessorNormals"},{"bufferView":2,"byteOffset":37152,"componentType":5126,"count":36,"type":"VEC2","name":"accessorUVs"},{"bufferView":0,"byteOffset":9360,"componentType":5123,"count":36,"type":"SCALAR","name":"accessorIndices"},{"bufferView":1,"byteOffset":112320,"componentType":5126,"count":36,"max":[1.79999983,2.05,0.0500000119],"min":[-1.79999971,0.0,-0.0499999523],"type":"VEC3","name":"accessorPositions"},{"bufferView":1,"byteOffset":112752,"componentType":5126,"count":36,"type":"VEC3","name":"accessorNormals"},{"bufferView":2,"byteOffset":37440,"componentType":5126,"count":36,"type":"VEC2","name":"accessorUVs"},{"bufferView":0,"byteOffset":9432,"componentType":5123,"count":612,"type":"SCALAR","name":"accessorIndices"},{"bufferView":1,"byteOffset":113184,"componentType":5126,"count":612,"max":[0.75000006,1.49999952,0.75],"min":[-0.7500002,0.0,-0.75],"type":"VEC3","name":"accessorPositions"},{"bufferView":1,"byteOffset":120528,"componentType":5126,"count":612,"type":"VEC3","name":"accessorNormals"},{"bufferView":2,"byteOffset":37728,"componentType":5126,"count":612,"type":"VEC2","name":"accessorUVs"},{"bufferView":0,"byteOffset":10656,"componentType":5123,"count":216,"type":"SCALAR","name":"accessorIndices"},{"bufferView":1,"byteOffset":127872,"componentType":5126,"count":216,"max":[0.49999997,1.19999981,0.492404222],"min":[-0.50000006,-4.76837158E-07,-0.492403746],"type":"VEC3","name":"accessorPositions"},{"bufferView":1,"byteOffset":130464,"componentType":5126,"count":216,"type":"VEC3","name":"accessorNormals"},{"bufferView":2,"byteOffset":42624,"componentType":5126,"count":216,"type":"VEC2","name":"accessorUVs"},{"bufferView":0,"byteOffset":11088,"componentType":5123,"count":36,"type":"SCALAR","name":"accessorIndices"},{"bufferView":1,"byteOffset":133056,"componentType":5126,"count":36,"max":[0.25000006,0.8000001,0.25],"min":[-0.250000119,0.0,-0.25],"type":"VEC3","name":"accessorPositions"},{"bufferView":1,"byteOffset":133488,"componentType":5126,"count":36,"type":"VEC3","name":"accessorNormals"},{"bufferView":2,"byteOffset":44352,"componentType":5126,"count":36,"type":"VEC2","name":"accessorUVs"},{"bufferView":0,"byteOffset":11160,"componentType":5123,"count":36,"type":"SCALAR","name":"accessorIndices"},{"bufferView":1,"byteOffset":133920,"componentType":5126,"count":36,"max":[0.15,2.0,0.5],"min":[-0.15,0.0,-0.5],"type":"VEC3","name":"accessorPositions"},{"bufferView":1,"byteOffset":134352,"componentType":5126,"count":36,"type":"VEC3","name":"accessorNormals"},{"bufferView":2,"byteOffset":44640,"componentType":5126,"count":36,"type":"VEC2","name":"accessorUVs"},{"bufferView":0,"byteOffset":11232,"componentType":5123,"count":216,"type":"SCALAR","name":"accessorIndices"},{"bufferView":1,"byteOffset":134784,"componentType":5126,"count":216,"max":[0.199999928,1.0,0.196961522],"min":[-0.200000048,-2.98023224E-08,-0.196961641],"type":"VEC3","name":"accessorPositions"},{"bufferView":1,"byteOffset":137376,"componentType":5126,"count":216,"type":"VEC3","name":"accessorNormals"},{"bufferView":2,"byteOffset":44928,"componentType":5126,"count":216,"type":"VEC2","name":"accessorUVs"},{"bufferView":0,"byteOffset":11664,"componentType":5123,"count":216,"type":"SCALAR","name":"accessorIndices"},{"bufferView":1,"byteOffset":139968,"componentType":5126,"count":216,"max":[0.199999928,1.0,0.196961641],"min":[-0.200000048,-2.98023224E-08,-0.196961582],"type":"VEC3","name":"accessorPositions"},{"bufferView":1,"byteOffset":142560,"componentType":5126,"count":216,"type":"VEC3","name":"accessorNormals"},{"bufferView":2,"byteOffset":46656,"componentType":5126,"count":216,"type":"VEC2","name":"accessorUVs"},{"bufferView":0,"byteOffset":12096,"componentType":5123,"count":216,"type":"SCALAR","name":"accessorIndices"},{"bufferView":1,"byteOffset":145152,"componentType":5126,"count":216,"max":[0.25,0.200000018,0.246201992],"min":[-0.249999762,-2.98023224E-08,-0.246201873],"type":"VEC3","name":"accessorPositions"},{"bufferView":1,"byteOffset":147744,"componentType":5126,"count":216,"type":"VEC3","name":"accessorNormals"},{"bufferView":2,"byteOffset":48384,"componentType":5126,"count":216,"type":"VEC2","name":"accessorUVs"},{"bufferView":0,"byteOffset":12528,"componentType":5123,"count":216,"type":"SCALAR","name":"accessorIndices"},{"bufferView":1,"byteOffset":150336,"componentType":5126,"count":216,"max":[0.25,0.200000018,0.246201992],"min":[-0.249999762,-2.98023224E-08,-0.246202052],"type":"VEC3","name":"accessorPositions"},{"bufferView":1,"byteOffset":152928,"componentType":5126,"count":216,"type":"VEC3","name":"accessorNormals"},{"bufferView":2,"byteOffset":50112,"componentType":5126,"count":216,"type":"VEC2","name":"accessorUVs"},{"bufferView":0,"byteOffset":12960,"componentType":5123,"count":216,"type":"SCALAR","name":"accessorIndices"},{"bufferView":1,"byteOffset":155520,"componentType":5126,"count":216,"max":[0.25,1.0,0.246201992],"min":[-0.25,-2.98023224E-08,-0.246202111],"type":"VEC3","name":"accessorPositions"},{"bufferView":1,"byteOffset":158112,"componentType":5126,"count":216,"type":"VEC3","name":"accessorNormals"},{"bufferView":2,"byteOffset":51840,"componentType":5126,"count":216,"type":"VEC2","name":"accessorUVs"},{"bufferView":0,"byteOffset":13392,"componentType":5123,"count":216,"type":"SCALAR","name":"accessorIndices"},{"bufferView":1,"byteOffset":160704,"componentType":5126,"count":216,"max":[0.25,1.0,0.246202022],"min":[-0.25,-5.96046448E-08,-0.246201932],"type":"VEC3","name":"accessorPositions"},{"bufferView":1,"byteOffset":163296,"componentType":5126,"count":216,"type":"VEC3","name":"accessorNormals"},{"bufferView":2,"byteOffset":53568,"componentType":5126,"count":216,"type":"VEC2","name":"accessorUVs"},{"bufferView":0,"byteOffset":13824,"componentType":5123,"count":216,"type":"SCALAR","name":"accessorIndices"},{"bufferView":1,"byteOffset":165888,"componentType":5126,"count":216,"max":[0.3,0.199999988,0.295442343],"min":[-0.3,-2.98023224E-08,-0.295442343],"type":"VEC3","name":"accessorPositions"},{"bufferView":1,"byteOffset":168480,"componentType":5126,"count":216,"type":"VEC3","name":"accessorNormals"},{"bufferView":2,"byteOffset":55296,"componentType":5126,"count":216,"type":"VEC2","name":"accessorUVs"},{"bufferView":0,"byteOffset":14256,"componentType":5123,"count":216,"type":"SCALAR","name":"accessorIndices"},{"bufferView":1,"byteOffset":171072,"componentType":5126,"count":216,"max":[0.3,0.199999988,0.295442343],"min":[-0.3,-5.96046448E-08,-0.2954424],"type":"VEC3","name":"accessorPositions"},{"bufferView":1,"byteOffset":173664,"componentType":5126,"count":216,"type":"VEC3","name":"accessorNormals"},{"bufferView":2,"byteOffset":57024,"componentType":5126,"count":216,"type":"VEC2","name":"accessorUVs"}],"bufferViews":[{"buffer":0,"byteLength":14688,"name":"bufferViewScalar"},{"buffer":0,"byteOffset":14688,"byteLength":176256,"byteStride":12,"name":"bufferViewFloatVec3"},{"buffer":0,"byteOffset":190944,"byteLength":58752,"byteStride":8,"name":"bufferViewFloatVec2"}],"buffers":[{"uri":"cooler_set.bin","byteLength":249696}],"materials":[{"pbrMetallicRoughness":{"baseColorFactor":[0.9999998,0.9999998,0.9999998,1.0],"baseColorTexture":{"index":1,"texCoord":0},"metallicFactor":0.802083135,"roughnessFactor":0.6},"normalTexture":{"index":0,"texCoord":0},"emissiveFactor":[0.0,0.0,0.0],"alphaMode":"OPAQUE","name":"Material #7"},{"pbrMetallicRoughness":{"baseColorFactor":[0.9999999,0.9999999,0.9999999,1.0],"baseColorTexture":{"index":3,"texCoord":0},"metallicFactor":0.520833135,"roughnessFactor":0.700000048},"normalTexture":{"index":2,"texCoord":0},"emissiveFactor":[0.0,0.0,0.0],"alphaMode":"BLEND","name":"Material #8"},{"pbrMetallicRoughness":{"baseColorFactor":[0.9999999,0.9999999,0.9999999,1.0],"baseColorTexture":{"index":5,"texCoord":0},"metallicFactor":0.520833135,"roughnessFactor":0.75},"normalTexture":{"index":4,"texCoord":0},"emissiveFactor":[0.0,0.0,0.0],"alphaMode":"BLEND","name":"Material #9"}],"textures":[{"sampler":0,"source":0,"name":"blue3.png"},{"sampler":1,"source":1,"name":"Material #7_baseColor.jpg"},{"sampler":2,"source":2,"name":"blue4.png"},{"sampler":3,"source":3,"name":"Material #8_baseColor.png"},{"sampler":4,"source":4,"name":"orange1.png"},{"sampler":5,"source":5,"name":"Material #9_baseColor.png"}],"images":[{"uri":"blue3.png"},{"uri":"Material #7_baseColor.jpg"},{"uri":"blue4.png"},{"uri":"Material #8_baseColor.png"},{"uri":"orange1.png"},{"uri":"Material #9_baseColor.png"}],"samplers":[{"magFilter":9729,"minFilter":9987,"wrapS":10497,"wrapT":10497},{"magFilter":9729,"minFilter":9987,"wrapS":10497,"wrapT":10497},{"magFilter":9729,"minFilter":9987,"wrapS":10497,"wrapT":10497},{"magFilter":9729,"minFilter":9987,"wrapS":10497,"wrapT":10497},{"magFilter":9729,"minFilter":9987,"wrapS":10497,"wrapT":10497},{"magFilter":9729,"minFilter":9987,"wrapS":10497,"wrapT":10497}]}