{"asset":{"version":"2.0","generator":"babylon.js glTF exporter for 3ds max 2019 v1.3.9"},"scene":0,"scenes":[{"nodes":[0,18,36],"extensions":{}}],"nodes":[{"children":[1,2,4,6,7,8,9,10,11,12,14,16,17],"translation":[13.705883,6.45789337,-70.9160156],"rotation":[0.0,-0.7071068,0.0,0.7071067],"scale":[0.983228743,0.983228743,0.983228743],"name":"water_treatment_set"},{"mesh":0,"translation":[-0.3719864,-6.049924,2.2306633],"rotation":[4.10995926E-05,-0.7071068,4.10996E-05,0.7071067],"scale":[1.0,1.0,1.0],"name":"OilTank003"},{"children":[3],"mesh":1,"translation":[1.42755127,-3.62052321,2.2306633],"rotation":[-0.4999709,-0.5000291,-0.499971,0.500029],"scale":[1.0,1.0,1.0],"name":"Cylinder544"},{"mesh":2,"translation":[0.0,0.970687866,-2.38418579E-07],"rotation":[0.0,-8.524407E-19,-7.10542736E-15,1.0],"scale":[1.0,1.0,1.0],"name":"Cylinder545"},{"children":[5],"mesh":3,"translation":[0.226325989,5.4504776,2.2306633],"rotation":[4.10995926E-05,-0.7071068,4.10996E-05,0.7071067],"scale":[1.0,1.0,1.0],"name":"Cylinder546"},{"mesh":4,"translation":[0.0,0.970000267,0.0],"rotation":[0.0,-7.10542736E-15,8.524407E-19,1.0],"scale":[1.0,1.0,1.0],"name":"Cylinder547"},{"mesh":5,"translation":[-0.3726883,-0.04992485,3.930663],"rotation":[-4.13572925E-05,0.7071067,0.7071068,-4.102012E-05],"scale":[1.0,1.0,1.0],"name":"Cylinder548"},{"mesh":6,"translation":[-0.3482895,-6.120523,1.08980179],"rotation":[0.0,-1.77635684E-15,0.0,1.0],"scale":[1.0,1.0,1.0],"name":"Box437"},{"mesh":7,"translation":[-0.3482895,-6.120523,3.41486645],"rotation":[0.0,-1.77635684E-15,0.0,1.0],"scale":[1.0,1.0,1.0],"name":"Box438"},{"mesh":8,"translation":[-0.3482895,-6.620523,0.0],"rotation":[0.0,-1.77635684E-15,0.0,1.0],"scale":[1.0,1.0,1.0],"name":"Box439"},{"mesh":9,"translation":[-0.3482895,-6.120523,-3.48527431],"rotation":[0.0,-1.77635684E-15,0.0,1.0],"scale":[1.0,1.0,1.0],"name":"Box440"},{"mesh":10,"translation":[-0.3482895,-6.120523,-1.16021061],"rotation":[0.0,-1.77635684E-15,0.0,1.0],"scale":[1.0,1.0,1.0],"name":"Box441"},{"children":[13],"mesh":11,"translation":[1.42755127,-3.62052321,-2.3444128],"rotation":[-0.4999709,-0.5000291,-0.499971,0.500029],"scale":[1.0,1.0,1.0],"name":"Cylinder549"},{"mesh":12,"translation":[0.0,0.970687866,-2.38418579E-07],"rotation":[0.0,-8.524407E-19,-7.10542736E-15,1.0],"scale":[1.0,1.0,1.0],"name":"Cylinder550"},{"children":[15],"mesh":13,"translation":[0.226325989,5.4504776,-2.3444128],"rotation":[4.10995926E-05,-0.7071068,4.10996E-05,0.7071067],"scale":[1.0,1.0,1.0],"name":"Cylinder551"},{"mesh":14,"translation":[0.0,0.970000267,0.0],"rotation":[0.0,-7.10542736E-15,8.524407E-19,1.0],"scale":[1.0,1.0,1.0],"name":"Cylinder552"},{"mesh":15,"translation":[-0.3726883,-0.04992485,-0.644413948],"rotation":[-4.13572925E-05,0.7071067,0.7071068,-4.102012E-05],"scale":[1.0,1.0,1.0],"name":"Cylinder010"},{"mesh":16,"translation":[-0.3719864,-6.049924,-2.3444128],"rotation":[4.10995926E-05,-0.7071068,4.10996E-05,0.7071067],"scale":[1.0,1.0,1.0],"name":"OilTank004"},{"children":[19,20,22,24,25,26,27,28,29,30,32,34,35],"translation":[-36.57126,6.45789337,-71.09333],"rotation":[0.0,-0.7071068,0.0,0.7071067],"scale":[0.983228743,0.983228743,0.983228743],"name":"water_treatment_set001"},{"mesh":0,"translation":[-0.3719864,-6.049924,2.2306633],"rotation":[4.10995926E-05,-0.7071068,4.10996E-05,0.7071067],"scale":[1.0,1.0,1.0],"name":"OilTank007"},{"children":[21],"mesh":1,"translation":[1.42755127,-3.62052321,2.2306633],"rotation":[-0.4999709,-0.5000291,-0.499971,0.500029],"scale":[1.0,1.0,1.0],"name":"Cylinder571"},{"mesh":2,"translation":[0.0,0.970687866,-2.38418579E-07],"rotation":[0.0,-8.524407E-19,-7.10542736E-15,1.0],"scale":[1.0,1.0,1.0],"name":"Cylinder572"},{"children":[23],"mesh":3,"translation":[0.226333618,5.4504776,2.2306633],"rotation":[4.10995926E-05,-0.7071068,4.10996E-05,0.7071067],"scale":[1.0,1.0,1.0],"name":"Cylinder573"},{"mesh":4,"translation":[0.0,0.970000267,7.62939453E-06],"rotation":[0.0,-7.10542736E-15,8.524407E-19,1.0],"scale":[1.0,1.0,1.0],"name":"Cylinder574"},{"mesh":5,"translation":[-0.372680664,-0.04992485,3.930664],"rotation":[-4.13572925E-05,0.7071067,0.7071068,-4.102012E-05],"scale":[1.0,1.0,1.0],"name":"Cylinder575"},{"mesh":6,"translation":[-0.34828186,-6.120523,1.0898056],"rotation":[0.0,-1.77635684E-15,0.0,1.0],"scale":[1.0,1.0,1.0],"name":"Box564"},{"mesh":7,"translation":[-0.34828186,-6.120523,3.4148674],"rotation":[0.0,-1.77635684E-15,0.0,1.0],"scale":[1.0,1.0,1.0],"name":"Box565"},{"mesh":8,"translation":[-0.34828186,-6.620523,0.0],"rotation":[0.0,-1.77635684E-15,0.0,1.0],"scale":[1.0,1.0,1.0],"name":"Box566"},{"mesh":9,"translation":[-0.34828186,-6.120523,-3.48527527],"rotation":[0.0,-1.77635684E-15,0.0,1.0],"scale":[1.0,1.0,1.0],"name":"Box567"},{"mesh":10,"translation":[-0.34828186,-6.120523,-1.16020966],"rotation":[0.0,-1.77635684E-15,0.0,1.0],"scale":[1.0,1.0,1.0],"name":"Box568"},{"children":[31],"mesh":11,"translation":[1.42755127,-3.62052321,-2.34441376],"rotation":[-0.4999709,-0.5000291,-0.499971,0.500029],"scale":[1.0,1.0,1.0],"name":"Cylinder576"},{"mesh":12,"translation":[0.0,0.970687866,-2.38418579E-07],"rotation":[0.0,-8.524407E-19,-7.10542736E-15,1.0],"scale":[1.0,1.0,1.0],"name":"Cylinder577"},{"children":[33],"mesh":13,"translation":[0.226333618,5.4504776,-2.34441376],"rotation":[4.10995926E-05,-0.7071068,4.10996E-05,0.7071067],"scale":[1.0,1.0,1.0],"name":"Cylinder570"},{"mesh":14,"translation":[0.0,0.970000267,7.62939453E-06],"rotation":[0.0,-7.10542736E-15,8.524407E-19,1.0],"scale":[1.0,1.0,1.0],"name":"Cylinder569"},{"mesh":15,"translation":[-0.372680664,-0.04992485,-0.644413],"rotation":[-4.13572925E-05,0.7071067,0.7071068,-4.102012E-05],"scale":[1.0,1.0,1.0],"name":"Cylinder578"},{"mesh":16,"translation":[-0.3719864,-6.049924,-2.34441376],"rotation":[4.10995926E-05,-0.7071068,4.10996E-05,0.7071067],"scale":[1.0,1.0,1.0],"name":"OilTank008"},{"translation":[0.0,0.0,0.0],"rotation":[0.0,0.0,0.0,1.0],"scale":[1.0,1.0,1.0],"name":"Default light"}],"meshes":[{"primitives":[{"attributes":{"POSITION":1,"NORMAL":2,"TEXCOORD_0":3},"indices":0,"mode":4,"material":0}],"name":"OilTank003"},{"primitives":[{"attributes":{"POSITION":5,"NORMAL":6,"TEXCOORD_0":7},"indices":4,"mode":4,"material":0}],"name":"Cylinder544"},{"primitives":[{"attributes":{"POSITION":9,"NORMAL":10,"TEXCOORD_0":11},"indices":8,"mode":4,"material":0}],"name":"Cylinder545"},{"primitives":[{"attributes":{"POSITION":13,"NORMAL":14,"TEXCOORD_0":15},"indices":12,"mode":4,"material":0}],"name":"Cylinder546"},{"primitives":[{"attributes":{"POSITION":17,"NORMAL":18,"TEXCOORD_0":19},"indices":16,"mode":4,"material":0}],"name":"Cylinder547"},{"primitives":[{"attributes":{"POSITION":21,"NORMAL":22,"TEXCOORD_0":23},"indices":20,"mode":4,"material":0}],"name":"Cylinder548"},{"primitives":[{"attributes":{"POSITION":25,"NORMAL":26,"TEXCOORD_0":27},"indices":24,"mode":4,"material":0}],"name":"Box437"},{"primitives":[{"attributes":{"POSITION":29,"NORMAL":30,"TEXCOORD_0":31},"indices":28,"mode":4,"material":0}],"name":"Box438"},{"primitives":[{"attributes":{"POSITION":33,"NORMAL":34,"TEXCOORD_0":35},"indices":32,"mode":4,"material":1}],"name":"Box439"},{"primitives":[{"attributes":{"POSITION":37,"NORMAL":38,"TEXCOORD_0":39},"indices":36,"mode":4,"material":0}],"name":"Box440"},{"primitives":[{"attributes":{"POSITION":41,"NORMAL":42,"TEXCOORD_0":43},"indices":40,"mode":4,"material":0}],"name":"Box441"},{"primitives":[{"attributes":{"POSITION":45,"NORMAL":46,"TEXCOORD_0":47},"indices":44,"mode":4,"material":0}],"name":"Cylinder549"},{"primitives":[{"attributes":{"POSITION":49,"NORMAL":50,"TEXCOORD_0":51},"indices":48,"mode":4,"material":0}],"name":"Cylinder550"},{"primitives":[{"attributes":{"POSITION":53,"NORMAL":54,"TEXCOORD_0":55},"indices":52,"mode":4,"material":0}],"name":"Cylinder551"},{"primitives":[{"attributes":{"POSITION":57,"NORMAL":58,"TEXCOORD_0":59},"indices":56,"mode":4,"material":0}],"name":"Cylinder552"},{"primitives":[{"attributes":{"POSITION":61,"NORMAL":62,"TEXCOORD_0":63},"indices":60,"mode":4,"material":0}],"name":"Cylinder010"},{"primitives":[{"attributes":{"POSITION":65,"NORMAL":66,"TEXCOORD_0":67},"indices":64,"mode":4,"material":0}],"name":"OilTank004"}],"accessors":[{"bufferView":0,"componentType":5123,"count":576,"type":"SCALAR","name":"accessorIndices"},{"bufferView":1,"componentType":5126,"count":576,"max":[1.999999,12.000001,2.00000763],"min":[-2.0,0.0,-2.0],"type":"VEC3","name":"accessorPositions"},{"bufferView":1,"byteOffset":6912,"componentType":5126,"count":576,"type":"VEC3","name":"accessorNormals"},{"bufferView":2,"componentType":5126,"count":576,"type":"VEC2","name":"accessorUVs"},{"bufferView":0,"byteOffset":1152,"componentType":5123,"count":216,"type":"SCALAR","name":"accessorIndices"},{"bufferView":1,"byteOffset":13824,"componentType":5126,"count":216,"max":[0.299999237,1.0,0.295442343],"min":[-0.3000002,-7.62939453E-06,-0.295442581],"type":"VEC3","name":"accessorPositions"},{"bufferView":1,"byteOffset":16416,"componentType":5126,"count":216,"type":"VEC3","name":"accessorNormals"},{"bufferView":2,"byteOffset":4608,"componentType":5126,"count":216,"type":"VEC2","name":"accessorUVs"},{"bufferView":0,"byteOffset":1584,"componentType":5123,"count":216,"type":"SCALAR","name":"accessorIndices"},{"bufferView":1,"byteOffset":19008,"componentType":5126,"count":216,"max":[0.399999619,0.199996948,0.393923283],"min":[-0.400000572,-1.52587891E-05,-0.393923044],"type":"VEC3","name":"accessorPositions"},{"bufferView":1,"byteOffset":21600,"componentType":5126,"count":216,"type":"VEC3","name":"accessorNormals"},{"bufferView":2,"byteOffset":6336,"componentType":5126,"count":216,"type":"VEC2","name":"accessorUVs"},{"bufferView":0,"byteOffset":2016,"componentType":5123,"count":216,"type":"SCALAR","name":"accessorIndices"},{"bufferView":1,"byteOffset":24192,"componentType":5126,"count":216,"max":[0.299999237,1.0,0.2954483],"min":[-0.3000002,-9.536743E-07,-0.2954483],"type":"VEC3","name":"accessorPositions"},{"bufferView":1,"byteOffset":26784,"componentType":5126,"count":216,"type":"VEC3","name":"accessorNormals"},{"bufferView":2,"byteOffset":8064,"componentType":5126,"count":216,"type":"VEC2","name":"accessorUVs"},{"bufferView":0,"byteOffset":2448,"componentType":5123,"count":216,"type":"SCALAR","name":"accessorIndices"},{"bufferView":1,"byteOffset":29376,"componentType":5126,"count":216,"max":[0.399999619,0.200000763,0.3939209],"min":[-0.400000572,-9.536743E-07,-0.3939209],"type":"VEC3","name":"accessorPositions"},{"bufferView":1,"byteOffset":31968,"componentType":5126,"count":216,"type":"VEC3","name":"accessorNormals"},{"bufferView":2,"byteOffset":9792,"componentType":5126,"count":216,"type":"VEC2","name":"accessorUVs"},{"bufferView":0,"byteOffset":2880,"componentType":5123,"count":216,"type":"SCALAR","name":"accessorIndices"},{"bufferView":1,"byteOffset":34560,"componentType":5126,"count":216,"max":[1.0,0.400000572,0.9848075],"min":[-1.00000763,-9.536743E-07,-0.984807968],"type":"VEC3","name":"accessorPositions"},{"bufferView":1,"byteOffset":37152,"componentType":5126,"count":216,"type":"VEC3","name":"accessorNormals"},{"bufferView":2,"byteOffset":11520,"componentType":5126,"count":216,"type":"VEC2","name":"accessorUVs"},{"bufferView":0,"byteOffset":3312,"componentType":5123,"count":36,"type":"SCALAR","name":"accessorIndices"},{"bufferView":1,"byteOffset":39744,"componentType":5126,"count":36,"max":[1.5,1.99999988,0.100000381],"min":[-1.5,0.0,-0.09999943],"type":"VEC3","name":"accessorPositions"},{"bufferView":1,"byteOffset":40176,"componentType":5126,"count":36,"type":"VEC3","name":"accessorNormals"},{"bufferView":2,"byteOffset":13248,"componentType":5126,"count":36,"type":"VEC2","name":"accessorUVs"},{"bufferView":0,"byteOffset":3384,"componentType":5123,"count":36,"type":"SCALAR","name":"accessorIndices"},{"bufferView":1,"byteOffset":40608,"componentType":5126,"count":36,"max":[1.5,1.99999988,0.09999943],"min":[-1.5,0.0,-0.100000381],"type":"VEC3","name":"accessorPositions"},{"bufferView":1,"byteOffset":41040,"componentType":5126,"count":36,"type":"VEC3","name":"accessorNormals"},{"bufferView":2,"byteOffset":13536,"componentType":5126,"count":36,"type":"VEC2","name":"accessorUVs"},{"bufferView":0,"byteOffset":3456,"componentType":5123,"count":36,"type":"SCALAR","name":"accessorIndices"},{"bufferView":1,"byteOffset":41472,"componentType":5126,"count":36,"max":[2.25,0.49999997,4.500001],"min":[-2.25,0.0,-4.499999],"type":"VEC3","name":"accessorPositions"},{"bufferView":1,"byteOffset":41904,"componentType":5126,"count":36,"type":"VEC3","name":"accessorNormals"},{"bufferView":2,"byteOffset":13824,"componentType":5126,"count":36,"type":"VEC2","name":"accessorUVs"},{"bufferView":0,"byteOffset":3528,"componentType":5123,"count":36,"type":"SCALAR","name":"accessorIndices"},{"bufferView":1,"byteOffset":42336,"componentType":5126,"count":36,"max":[1.5,1.99999988,0.100002289],"min":[-1.5,0.0,-0.100000381],"type":"VEC3","name":"accessorPositions"},{"bufferView":1,"byteOffset":42768,"componentType":5126,"count":36,"type":"VEC3","name":"accessorNormals"},{"bufferView":2,"byteOffset":14112,"componentType":5126,"count":36,"type":"VEC2","name":"accessorUVs"},{"bufferView":0,"byteOffset":3600,"componentType":5123,"count":36,"type":"SCALAR","name":"accessorIndices"},{"bufferView":1,"byteOffset":43200,"componentType":5126,"count":36,"max":[1.5,1.99999988,0.100000381],"min":[-1.5,0.0,-0.100000381],"type":"VEC3","name":"accessorPositions"},{"bufferView":1,"byteOffset":43632,"componentType":5126,"count":36,"type":"VEC3","name":"accessorNormals"},{"bufferView":2,"byteOffset":14400,"componentType":5126,"count":36,"type":"VEC2","name":"accessorUVs"},{"bufferView":0,"byteOffset":3672,"componentType":5123,"count":216,"type":"SCALAR","name":"accessorIndices"},{"bufferView":1,"byteOffset":44064,"componentType":5126,"count":216,"max":[0.299998283,1.00000763,0.295442343],"min":[-0.300001144,0.0,-0.295442581],"type":"VEC3","name":"accessorPositions"},{"bufferView":1,"byteOffset":46656,"componentType":5126,"count":216,"type":"VEC3","name":"accessorNormals"},{"bufferView":2,"byteOffset":14688,"componentType":5126,"count":216,"type":"VEC2","name":"accessorUVs"},{"bufferView":0,"byteOffset":4104,"componentType":5123,"count":216,"type":"SCALAR","name":"accessorIndices"},{"bufferView":1,"byteOffset":49248,"componentType":5126,"count":216,"max":[0.399998665,0.200004578,0.393923283],"min":[-0.399999619,-7.62939453E-06,-0.393923044],"type":"VEC3","name":"accessorPositions"},{"bufferView":1,"byteOffset":51840,"componentType":5126,"count":216,"type":"VEC3","name":"accessorNormals"},{"bufferView":2,"byteOffset":16416,"componentType":5126,"count":216,"type":"VEC2","name":"accessorUVs"},{"bufferView":0,"byteOffset":4536,"componentType":5123,"count":216,"type":"SCALAR","name":"accessorIndices"},{"bufferView":1,"byteOffset":54432,"componentType":5126,"count":216,"max":[0.299999237,1.0,0.2954483],"min":[-0.300001144,-9.536743E-07,-0.2954483],"type":"VEC3","name":"accessorPositions"},{"bufferView":1,"byteOffset":57024,"componentType":5126,"count":216,"type":"VEC3","name":"accessorNormals"},{"bufferView":2,"byteOffset":18144,"componentType":5126,"count":216,"type":"VEC2","name":"accessorUVs"},{"bufferView":0,"byteOffset":4968,"componentType":5123,"count":216,"type":"SCALAR","name":"accessorIndices"},{"bufferView":1,"byteOffset":59616,"componentType":5126,"count":216,"max":[0.399999619,0.200000763,0.3939209],"min":[-0.399999619,-9.536743E-07,-0.393928528],"type":"VEC3","name":"accessorPositions"},{"bufferView":1,"byteOffset":62208,"componentType":5126,"count":216,"type":"VEC3","name":"accessorNormals"},{"bufferView":2,"byteOffset":19872,"componentType":5126,"count":216,"type":"VEC2","name":"accessorUVs"},{"bufferView":0,"byteOffset":5400,"componentType":5123,"count":216,"type":"SCALAR","name":"accessorIndices"},{"bufferView":1,"byteOffset":64800,"componentType":5126,"count":216,"max":[1.0,0.400000572,0.9848075],"min":[-1.00000763,-9.536743E-07,-0.984807968],"type":"VEC3","name":"accessorPositions"},{"bufferView":1,"byteOffset":67392,"componentType":5126,"count":216,"type":"VEC3","name":"accessorNormals"},{"bufferView":2,"byteOffset":21600,"componentType":5126,"count":216,"type":"VEC2","name":"accessorUVs"},{"bufferView":0,"byteOffset":5832,"componentType":5123,"count":576,"type":"SCALAR","name":"accessorIndices"},{"bufferView":1,"byteOffset":69984,"componentType":5126,"count":576,"max":[1.999999,12.000001,2.0],"min":[-2.0,0.0,-2.00000763],"type":"VEC3","name":"accessorPositions"},{"bufferView":1,"byteOffset":76896,"componentType":5126,"count":576,"type":"VEC3","name":"accessorNormals"},{"bufferView":2,"byteOffset":23328,"componentType":5126,"count":576,"type":"VEC2","name":"accessorUVs"}],"bufferViews":[{"buffer":0,"byteLength":6984,"name":"bufferViewScalar"},{"buffer":0,"byteOffset":6984,"byteLength":83808,"byteStride":12,"name":"bufferViewFloatVec3"},{"buffer":0,"byteOffset":90792,"byteLength":27936,"byteStride":8,"name":"bufferViewFloatVec2"}],"buffers":[{"uri":"water_treatment_set.bin","byteLength":118728}],"materials":[{"pbrMetallicRoughness":{"baseColorFactor":[0.999999762,0.999999762,0.999999762,1.0],"baseColorTexture":{"index":1,"texCoord":0},"metallicFactor":0.7833331,"roughnessFactor":0.700000048},"normalTexture":{"index":0,"texCoord":0},"emissiveFactor":[0.0,0.0,0.0],"alphaMode":"BLEND","name":"Material #22"},{"pbrMetallicRoughness":{"baseColorFactor":[1.0,1.0,1.0,1.0],"baseColorTexture":{"index":3,"texCoord":0},"metallicFactor":0.145833567,"roughnessFactor":0.9},"normalTexture":{"index":2,"texCoord":0},"emissiveFactor":[0.0,0.0,0.0],"alphaMode":"OPAQUE","name":"Material #23"}],"textures":[{"sampler":0,"source":0,"name":"blue2.png"},{"sampler":1,"source":1,"name":"Material #22_baseColor.png"},{"sampler":2,"source":2,"name":"green1.png"},{"sampler":3,"source":3,"name":"Material #23_baseColor.jpg"}],"images":[{"uri":"blue2.png"},{"uri":"Material #22_baseColor.png"},{"uri":"green1.png"},{"uri":"Material #23_baseColor.jpg"}],"samplers":[{"magFilter":9729,"minFilter":9987,"wrapS":10497,"wrapT":10497},{"magFilter":9729,"minFilter":9987,"wrapS":10497,"wrapT":10497},{"magFilter":9729,"minFilter":9987,"wrapS":10497,"wrapT":10497},{"magFilter":9729,"minFilter":9987,"wrapS":10497,"wrapT":10497}]}