{"asset":{"version":"2.0","generator":"babylon.js glTF exporter for 3ds max 2019 v1.3.9"},"scene":0,"scenes":[{"nodes":[0,18,36],"extensions":{}}],"nodes":[{"children":[1,2,4,6,7,8,9,10,11,12,14,16,17],"translation":[-138.54068,13.2831526,-59.57057],"rotation":[0.0,0.0,0.0,1.0],"scale":[1.95486879,1.95486879,1.95486879],"name":"water_treatment_set003"},{"mesh":0,"translation":[-0.3719864,-6.049924,2.2306633],"rotation":[4.10995963E-05,-0.7071068,4.10996035E-05,0.7071067],"scale":[1.0,1.0,1.0],"name":"OilTank017"},{"children":[3],"mesh":1,"translation":[1.42755127,-3.62052345,2.2306633],"rotation":[-0.4999709,-0.5000291,-0.499971,0.500029],"scale":[1.0,1.0,1.0],"name":"Cylinder609"},{"mesh":2,"translation":[0.0,0.970687866,-2.38418579E-07],"rotation":[-3.637979E-12,4.33680869E-19,7.10542736E-15,1.0],"scale":[1.0,1.0,1.0],"name":"Cylinder610"},{"children":[5],"mesh":3,"translation":[0.226325989,5.4504776,2.2306633],"rotation":[4.10995963E-05,-0.7071068,4.10996035E-05,0.7071067],"scale":[1.0,1.0,1.0],"name":"Cylinder611"},{"mesh":4,"translation":[0.0,0.970000267,0.0],"rotation":[0.0,7.10542736E-15,-4.33680869E-19,1.0],"scale":[1.0,1.0,1.0],"name":"Cylinder612"},{"mesh":5,"translation":[-0.372680664,-0.04992485,3.93066216],"rotation":[-4.13572961E-05,0.7071067,0.7071068,-4.102012E-05],"scale":[1.0,1.0,1.0],"name":"Cylinder613"},{"mesh":6,"translation":[-0.34828186,-6.120523,1.08980179],"rotation":[0.0,0.0,0.0,1.0],"scale":[1.0,1.0,1.0],"name":"Box487"},{"mesh":7,"translation":[-0.34828186,-6.120523,3.41486549],"rotation":[0.0,0.0,0.0,1.0],"scale":[1.0,1.0,1.0],"name":"Box488"},{"mesh":8,"translation":[-0.34828186,-6.62052345,0.0],"rotation":[0.0,0.0,0.0,1.0],"scale":[1.0,1.0,1.0],"name":"Box489"},{"mesh":9,"translation":[-0.34828186,-6.120523,-3.48527336],"rotation":[0.0,0.0,0.0,1.0],"scale":[1.0,1.0,1.0],"name":"Box490"},{"mesh":10,"translation":[-0.34828186,-6.120523,-1.16020966],"rotation":[0.0,0.0,0.0,1.0],"scale":[1.0,1.0,1.0],"name":"Box491"},{"children":[13],"mesh":11,"translation":[1.42755127,-3.62052345,-2.34441566],"rotation":[-0.4999709,-0.5000291,-0.499971,0.500029],"scale":[1.0,1.0,1.0],"name":"Cylinder614"},{"mesh":12,"translation":[0.0,0.970687866,-2.38418579E-07],"rotation":[-3.637979E-12,4.33680869E-19,7.10542736E-15,1.0],"scale":[1.0,1.0,1.0],"name":"Cylinder615"},{"children":[15],"mesh":13,"translation":[0.226325989,5.4504776,-2.34441566],"rotation":[4.10995963E-05,-0.7071068,4.10996035E-05,0.7071067],"scale":[1.0,1.0,1.0],"name":"Cylinder616"},{"mesh":14,"translation":[0.0,0.970000267,0.0],"rotation":[0.0,7.10542736E-15,-4.33680869E-19,1.0],"scale":[1.0,1.0,1.0],"name":"Cylinder617"},{"mesh":15,"translation":[-0.372680664,-0.04992485,-0.6444149],"rotation":[-4.13572961E-05,0.7071067,0.7071068,-4.102012E-05],"scale":[1.0,1.0,1.0],"name":"Cylinder618"},{"mesh":16,"translation":[-0.3719864,-6.049924,-2.34441566],"rotation":[4.10995963E-05,-0.7071068,4.10996035E-05,0.7071067],"scale":[1.0,1.0,1.0],"name":"OilTank018"},{"children":[19,20,22,24,25,26,27,28,29,30,32,34,35],"translation":[-138.54068,13.2831526,31.5595551],"rotation":[0.0,0.0,0.0,1.0],"scale":[1.95486879,1.95486879,1.95486879],"name":"water_treatment_set004"},{"mesh":0,"translation":[-0.3719864,-6.049924,2.2306633],"rotation":[4.10995963E-05,-0.7071068,4.10996035E-05,0.7071067],"scale":[1.0,1.0,1.0],"name":"OilTank019"},{"children":[21],"mesh":1,"translation":[1.42755127,-3.62052345,2.2306633],"rotation":[-0.4999709,-0.5000291,-0.499971,0.500029],"scale":[1.0,1.0,1.0],"name":"Cylinder619"},{"mesh":2,"translation":[0.0,0.970687866,-2.38418579E-07],"rotation":[-3.637979E-12,4.33680869E-19,7.10542736E-15,1.0],"scale":[1.0,1.0,1.0],"name":"Cylinder620"},{"children":[23],"mesh":3,"translation":[0.226325989,5.4504776,2.2306633],"rotation":[4.10995963E-05,-0.7071068,4.10996035E-05,0.7071067],"scale":[1.0,1.0,1.0],"name":"Cylinder621"},{"mesh":4,"translation":[0.0,0.970000267,0.0],"rotation":[0.0,7.10542736E-15,-4.33680869E-19,1.0],"scale":[1.0,1.0,1.0],"name":"Cylinder622"},{"mesh":5,"translation":[-0.372680664,-0.04992485,3.930664],"rotation":[-4.13572961E-05,0.7071067,0.7071068,-4.102012E-05],"scale":[1.0,1.0,1.0],"name":"Cylinder623"},{"mesh":6,"translation":[-0.34828186,-6.120523,1.0898037],"rotation":[0.0,0.0,0.0,1.0],"scale":[1.0,1.0,1.0],"name":"Box492"},{"mesh":7,"translation":[-0.34828186,-6.120523,3.41486549],"rotation":[0.0,0.0,0.0,1.0],"scale":[1.0,1.0,1.0],"name":"Box493"},{"mesh":8,"translation":[-0.34828186,-6.62052345,0.0],"rotation":[0.0,0.0,0.0,1.0],"scale":[1.0,1.0,1.0],"name":"Box494"},{"mesh":9,"translation":[-0.34828186,-6.120523,-3.48527431],"rotation":[0.0,0.0,0.0,1.0],"scale":[1.0,1.0,1.0],"name":"Box495"},{"mesh":10,"translation":[-0.34828186,-6.120523,-1.16021061],"rotation":[0.0,0.0,0.0,1.0],"scale":[1.0,1.0,1.0],"name":"Box496"},{"children":[31],"mesh":11,"translation":[1.42755127,-3.62052345,-2.34441376],"rotation":[-0.4999709,-0.5000291,-0.499971,0.500029],"scale":[1.0,1.0,1.0],"name":"Cylinder624"},{"mesh":12,"translation":[0.0,0.970687866,-2.38418579E-07],"rotation":[-3.637979E-12,4.33680869E-19,7.10542736E-15,1.0],"scale":[1.0,1.0,1.0],"name":"Cylinder625"},{"children":[33],"mesh":13,"translation":[0.226325989,5.4504776,-2.34441376],"rotation":[4.10995963E-05,-0.7071068,4.10996035E-05,0.7071067],"scale":[1.0,1.0,1.0],"name":"Cylinder626"},{"mesh":14,"translation":[0.0,0.970000267,0.0],"rotation":[0.0,7.10542736E-15,-4.33680869E-19,1.0],"scale":[1.0,1.0,1.0],"name":"Cylinder627"},{"mesh":15,"translation":[-0.372680664,-0.04992485,-0.644413],"rotation":[-4.13572961E-05,0.7071067,0.7071068,-4.102012E-05],"scale":[1.0,1.0,1.0],"name":"Cylinder628"},{"mesh":16,"translation":[-0.3719864,-6.049924,-2.34441376],"rotation":[4.10995963E-05,-0.7071068,4.10996035E-05,0.7071067],"scale":[1.0,1.0,1.0],"name":"OilTank020"},{"translation":[0.0,0.0,0.0],"rotation":[0.0,0.0,0.0,1.0],"scale":[1.0,1.0,1.0],"name":"Default light"}],"meshes":[{"primitives":[{"attributes":{"POSITION":1,"NORMAL":2,"TEXCOORD_0":3},"indices":0,"mode":4,"material":0}],"name":"OilTank017"},{"primitives":[{"attributes":{"POSITION":5,"NORMAL":6,"TEXCOORD_0":7},"indices":4,"mode":4,"material":0}],"name":"Cylinder609"},{"primitives":[{"attributes":{"POSITION":9,"NORMAL":10,"TEXCOORD_0":11},"indices":8,"mode":4,"material":0}],"name":"Cylinder610"},{"primitives":[{"attributes":{"POSITION":13,"NORMAL":14,"TEXCOORD_0":15},"indices":12,"mode":4,"material":0}],"name":"Cylinder611"},{"primitives":[{"attributes":{"POSITION":17,"NORMAL":18,"TEXCOORD_0":19},"indices":16,"mode":4,"material":0}],"name":"Cylinder612"},{"primitives":[{"attributes":{"POSITION":21,"NORMAL":22,"TEXCOORD_0":23},"indices":20,"mode":4,"material":0}],"name":"Cylinder613"},{"primitives":[{"attributes":{"POSITION":25,"NORMAL":26,"TEXCOORD_0":27},"indices":24,"mode":4,"material":0}],"name":"Box487"},{"primitives":[{"attributes":{"POSITION":29,"NORMAL":30,"TEXCOORD_0":31},"indices":28,"mode":4,"material":0}],"name":"Box488"},{"primitives":[{"attributes":{"POSITION":33,"NORMAL":34,"TEXCOORD_0":35},"indices":32,"mode":4,"material":1}],"name":"Box489"},{"primitives":[{"attributes":{"POSITION":37,"NORMAL":38,"TEXCOORD_0":39},"indices":36,"mode":4,"material":0}],"name":"Box490"},{"primitives":[{"attributes":{"POSITION":41,"NORMAL":42,"TEXCOORD_0":43},"indices":40,"mode":4,"material":0}],"name":"Box491"},{"primitives":[{"attributes":{"POSITION":45,"NORMAL":46,"TEXCOORD_0":47},"indices":44,"mode":4,"material":0}],"name":"Cylinder614"},{"primitives":[{"attributes":{"POSITION":49,"NORMAL":50,"TEXCOORD_0":51},"indices":48,"mode":4,"material":0}],"name":"Cylinder615"},{"primitives":[{"attributes":{"POSITION":53,"NORMAL":54,"TEXCOORD_0":55},"indices":52,"mode":4,"material":0}],"name":"Cylinder616"},{"primitives":[{"attributes":{"POSITION":57,"NORMAL":58,"TEXCOORD_0":59},"indices":56,"mode":4,"material":0}],"name":"Cylinder617"},{"primitives":[{"attributes":{"POSITION":61,"NORMAL":62,"TEXCOORD_0":63},"indices":60,"mode":4,"material":0}],"name":"Cylinder618"},{"primitives":[{"attributes":{"POSITION":65,"NORMAL":66,"TEXCOORD_0":67},"indices":64,"mode":4,"material":0}],"name":"OilTank018"}],"accessors":[{"bufferView":0,"componentType":5123,"count":576,"type":"SCALAR","name":"accessorIndices"},{"bufferView":1,"componentType":5126,"count":576,"max":[1.99999809,12.0,2.0],"min":[-2.0,0.0,-2.0],"type":"VEC3","name":"accessorPositions"},{"bufferView":1,"byteOffset":6912,"componentType":5126,"count":576,"type":"VEC3","name":"accessorNormals"},{"bufferView":2,"componentType":5126,"count":576,"type":"VEC2","name":"accessorUVs"},{"bufferView":0,"byteOffset":1152,"componentType":5123,"count":216,"type":"SCALAR","name":"accessorIndices"},{"bufferView":1,"byteOffset":13824,"componentType":5126,"count":216,"max":[0.299999237,1.00000763,0.295442343],"min":[-0.300001144,0.0,-0.295442343],"type":"VEC3","name":"accessorPositions"},{"bufferView":1,"byteOffset":16416,"componentType":5126,"count":216,"type":"VEC3","name":"accessorNormals"},{"bufferView":2,"byteOffset":4608,"componentType":5126,"count":216,"type":"VEC2","name":"accessorUVs"},{"bufferView":0,"byteOffset":1584,"componentType":5123,"count":216,"type":"SCALAR","name":"accessorIndices"},{"bufferView":1,"byteOffset":19008,"componentType":5126,"count":216,"max":[0.399999619,0.2000122,0.393923283],"min":[-0.400001526,0.0,-0.393923044],"type":"VEC3","name":"accessorPositions"},{"bufferView":1,"byteOffset":21600,"componentType":5126,"count":216,"type":"VEC3","name":"accessorNormals"},{"bufferView":2,"byteOffset":6336,"componentType":5126,"count":216,"type":"VEC2","name":"accessorUVs"},{"bufferView":0,"byteOffset":2016,"componentType":5123,"count":216,"type":"SCALAR","name":"accessorIndices"},{"bufferView":1,"byteOffset":24192,"componentType":5126,"count":216,"max":[0.299999237,1.0,0.295440674],"min":[-0.300001144,-9.536743E-07,-0.295440674],"type":"VEC3","name":"accessorPositions"},{"bufferView":1,"byteOffset":26784,"componentType":5126,"count":216,"type":"VEC3","name":"accessorNormals"},{"bufferView":2,"byteOffset":8064,"componentType":5126,"count":216,"type":"VEC2","name":"accessorUVs"},{"bufferView":0,"byteOffset":2448,"componentType":5123,"count":216,"type":"SCALAR","name":"accessorIndices"},{"bufferView":1,"byteOffset":29376,"componentType":5126,"count":216,"max":[0.399999619,0.200000763,0.3939209],"min":[-0.400001526,-9.536743E-07,-0.3939209],"type":"VEC3","name":"accessorPositions"},{"bufferView":1,"byteOffset":31968,"componentType":5126,"count":216,"type":"VEC3","name":"accessorNormals"},{"bufferView":2,"byteOffset":9792,"componentType":5126,"count":216,"type":"VEC2","name":"accessorUVs"},{"bufferView":0,"byteOffset":2880,"componentType":5123,"count":216,"type":"SCALAR","name":"accessorIndices"},{"bufferView":1,"byteOffset":34560,"componentType":5126,"count":216,"max":[1.0,0.399999619,0.984807968],"min":[-0.9999924,-1.90734863E-06,-0.984808445],"type":"VEC3","name":"accessorPositions"},{"bufferView":1,"byteOffset":37152,"componentType":5126,"count":216,"type":"VEC3","name":"accessorNormals"},{"bufferView":2,"byteOffset":11520,"componentType":5126,"count":216,"type":"VEC2","name":"accessorUVs"},{"bufferView":0,"byteOffset":3312,"componentType":5123,"count":36,"type":"SCALAR","name":"accessorIndices"},{"bufferView":1,"byteOffset":39744,"componentType":5126,"count":36,"max":[1.49999237,1.99999988,0.100000381],"min":[-1.5,0.0,-0.100000381],"type":"VEC3","name":"accessorPositions"},{"bufferView":1,"byteOffset":40176,"componentType":5126,"count":36,"type":"VEC3","name":"accessorNormals"},{"bufferView":2,"byteOffset":13248,"componentType":5126,"count":36,"type":"VEC2","name":"accessorUVs"},{"bufferView":0,"byteOffset":3384,"componentType":5123,"count":36,"type":"SCALAR","name":"accessorIndices"},{"bufferView":1,"byteOffset":40608,"componentType":5126,"count":36,"max":[1.49999237,1.99999988,0.100000381],"min":[-1.5,0.0,-0.100000381],"type":"VEC3","name":"accessorPositions"},{"bufferView":1,"byteOffset":41040,"componentType":5126,"count":36,"type":"VEC3","name":"accessorNormals"},{"bufferView":2,"byteOffset":13536,"componentType":5126,"count":36,"type":"VEC2","name":"accessorUVs"},{"bufferView":0,"byteOffset":3456,"componentType":5123,"count":36,"type":"SCALAR","name":"accessorIndices"},{"bufferView":1,"byteOffset":41472,"componentType":5126,"count":36,"max":[2.25,0.5,4.5],"min":[-2.25,0.0,-4.499998],"type":"VEC3","name":"accessorPositions"},{"bufferView":1,"byteOffset":41904,"componentType":5126,"count":36,"type":"VEC3","name":"accessorNormals"},{"bufferView":2,"byteOffset":13824,"componentType":5126,"count":36,"type":"VEC2","name":"accessorUVs"},{"bufferView":0,"byteOffset":3528,"componentType":5123,"count":36,"type":"SCALAR","name":"accessorIndices"},{"bufferView":1,"byteOffset":42336,"componentType":5126,"count":36,"max":[1.49999237,1.99999988,0.0999984741],"min":[-1.5,0.0,-0.100002289],"type":"VEC3","name":"accessorPositions"},{"bufferView":1,"byteOffset":42768,"componentType":5126,"count":36,"type":"VEC3","name":"accessorNormals"},{"bufferView":2,"byteOffset":14112,"componentType":5126,"count":36,"type":"VEC2","name":"accessorUVs"},{"bufferView":0,"byteOffset":3600,"componentType":5123,"count":36,"type":"SCALAR","name":"accessorIndices"},{"bufferView":1,"byteOffset":43200,"componentType":5126,"count":36,"max":[1.49999237,1.99999988,0.100000381],"min":[-1.5,0.0,-0.100000381],"type":"VEC3","name":"accessorPositions"},{"bufferView":1,"byteOffset":43632,"componentType":5126,"count":36,"type":"VEC3","name":"accessorNormals"},{"bufferView":2,"byteOffset":14400,"componentType":5126,"count":36,"type":"VEC2","name":"accessorUVs"},{"bufferView":0,"byteOffset":3672,"componentType":5123,"count":216,"type":"SCALAR","name":"accessorIndices"},{"bufferView":1,"byteOffset":44064,"componentType":5126,"count":216,"max":[0.299999237,1.00000763,0.295442343],"min":[-0.299999237,0.0,-0.295442343],"type":"VEC3","name":"accessorPositions"},{"bufferView":1,"byteOffset":46656,"componentType":5126,"count":216,"type":"VEC3","name":"accessorNormals"},{"bufferView":2,"byteOffset":14688,"componentType":5126,"count":216,"type":"VEC2","name":"accessorUVs"},{"bufferView":0,"byteOffset":4104,"componentType":5123,"count":216,"type":"SCALAR","name":"accessorIndices"},{"bufferView":1,"byteOffset":49248,"componentType":5126,"count":216,"max":[0.400001526,0.2000122,0.393923283],"min":[-0.3999977,0.0,-0.393923044],"type":"VEC3","name":"accessorPositions"},{"bufferView":1,"byteOffset":51840,"componentType":5126,"count":216,"type":"VEC3","name":"accessorNormals"},{"bufferView":2,"byteOffset":16416,"componentType":5126,"count":216,"type":"VEC2","name":"accessorUVs"},{"bufferView":0,"byteOffset":4536,"componentType":5123,"count":216,"type":"SCALAR","name":"accessorIndices"},{"bufferView":1,"byteOffset":54432,"componentType":5126,"count":216,"max":[0.299999237,1.0,0.295440674],"min":[-0.299999237,-9.536743E-07,-0.295440674],"type":"VEC3","name":"accessorPositions"},{"bufferView":1,"byteOffset":57024,"componentType":5126,"count":216,"type":"VEC3","name":"accessorNormals"},{"bufferView":2,"byteOffset":18144,"componentType":5126,"count":216,"type":"VEC2","name":"accessorUVs"},{"bufferView":0,"byteOffset":4968,"componentType":5123,"count":216,"type":"SCALAR","name":"accessorIndices"},{"bufferView":1,"byteOffset":59616,"componentType":5126,"count":216,"max":[0.400001526,0.200000763,0.3939209],"min":[-0.3999977,-9.536743E-07,-0.3939209],"type":"VEC3","name":"accessorPositions"},{"bufferView":1,"byteOffset":62208,"componentType":5126,"count":216,"type":"VEC3","name":"accessorNormals"},{"bufferView":2,"byteOffset":19872,"componentType":5126,"count":216,"type":"VEC2","name":"accessorUVs"},{"bufferView":0,"byteOffset":5400,"componentType":5123,"count":216,"type":"SCALAR","name":"accessorIndices"},{"bufferView":1,"byteOffset":64800,"componentType":5126,"count":216,"max":[1.0,0.399999619,0.984807968],"min":[-0.9999924,-1.90734863E-06,-0.984808445],"type":"VEC3","name":"accessorPositions"},{"bufferView":1,"byteOffset":67392,"componentType":5126,"count":216,"type":"VEC3","name":"accessorNormals"},{"bufferView":2,"byteOffset":21600,"componentType":5126,"count":216,"type":"VEC2","name":"accessorUVs"},{"bufferView":0,"byteOffset":5832,"componentType":5123,"count":576,"type":"SCALAR","name":"accessorIndices"},{"bufferView":1,"byteOffset":69984,"componentType":5126,"count":576,"max":[2.0,12.0,2.0],"min":[-2.0,0.0,-2.0],"type":"VEC3","name":"accessorPositions"},{"bufferView":1,"byteOffset":76896,"componentType":5126,"count":576,"type":"VEC3","name":"accessorNormals"},{"bufferView":2,"byteOffset":23328,"componentType":5126,"count":576,"type":"VEC2","name":"accessorUVs"}],"bufferViews":[{"buffer":0,"byteLength":6984,"name":"bufferViewScalar"},{"buffer":0,"byteOffset":6984,"byteLength":83808,"byteStride":12,"name":"bufferViewFloatVec3"},{"buffer":0,"byteOffset":90792,"byteLength":27936,"byteStride":8,"name":"bufferViewFloatVec2"}],"buffers":[{"uri":"water_treatment_set.bin","byteLength":118728}],"materials":[{"pbrMetallicRoughness":{"baseColorFactor":[0.999999762,0.999999762,0.999999762,1.0],"baseColorTexture":{"index":1,"texCoord":0},"metallicFactor":0.7833331,"roughnessFactor":0.700000048},"normalTexture":{"index":0,"texCoord":0},"emissiveFactor":[0.0,0.0,0.0],"alphaMode":"BLEND","name":"Material #22"},{"pbrMetallicRoughness":{"baseColorFactor":[1.0,1.0,1.0,1.0],"baseColorTexture":{"index":3,"texCoord":0},"metallicFactor":0.145833567,"roughnessFactor":0.9},"normalTexture":{"index":2,"texCoord":0},"emissiveFactor":[0.0,0.0,0.0],"alphaMode":"OPAQUE","name":"Material #23"}],"textures":[{"sampler":0,"source":0,"name":"blue2.png"},{"sampler":1,"source":1,"name":"Material #22_baseColor.png"},{"sampler":2,"source":2,"name":"green1.png"},{"sampler":3,"source":3,"name":"Material #23_baseColor.jpg"}],"images":[{"uri":"blue2.png"},{"uri":"Material #22_baseColor.png"},{"uri":"green1.png"},{"uri":"Material #23_baseColor.jpg"}],"samplers":[{"magFilter":9729,"minFilter":9987,"wrapS":10497,"wrapT":10497},{"magFilter":9729,"minFilter":9987,"wrapS":10497,"wrapT":10497},{"magFilter":9729,"minFilter":9987,"wrapS":10497,"wrapT":10497},{"magFilter":9729,"minFilter":9987,"wrapS":10497,"wrapT":10497}]}